<svg width="63" height="31" viewBox="0 0 63 31" fill="none" xmlns="http://www.w3.org/2000/svg">
<path d="M2.72168 13.4496C1.61734 13.4496 0.722092 14.3449 0.722092 15.4492C0.722092 16.5536 1.61734 17.4488 2.72168 17.4488V15.4492V13.4496ZM61.4571 16.8631C62.238 16.0823 62.238 14.8162 61.4571 14.0353L48.7318 1.31C47.9509 0.529112 46.6849 0.529112 45.904 1.31C45.1231 2.09089 45.1231 3.35696 45.904 4.13784L57.2154 15.4492L45.904 26.7606C45.1231 27.5415 45.1231 28.8076 45.904 29.5884C46.6849 30.3693 47.9509 30.3693 48.7318 29.5884L61.4571 16.8631ZM2.72168 15.4492V17.4488H60.0432V15.4492V13.4496H2.72168V15.4492Z" fill="#8D1A14"/>
</svg>
