<svg width="70" height="69" viewBox="0 0 70 69" fill="none" xmlns="http://www.w3.org/2000/svg">
<g clip-path="url(#clip0_607_6)">
<path d="M29.7837 6.79898C30.1912 5.10158 31.5132 3.86623 33.233 3.57101C34.9464 3.27902 36.6118 4.00418 37.5583 5.46736L43.1703 14.1408L55.3957 1.91551C56.4834 0.827767 57.9145 0.282254 59.3424 0.282254C60.7703 0.282254 62.2014 0.827736 63.2891 1.9155L67.8487 6.47509C70.0242 8.65056 70.0242 12.1898 67.8487 14.3653L55.6234 26.5906L64.2968 32.2026C65.7632 33.1492 66.4884 34.8081 66.1932 36.528C65.898 38.2478 64.6626 39.5698 62.9652 39.9773L26.1102 48.8241C24.6503 49.1738 23.1389 48.7503 22.0736 47.685C21.0083 46.6197 20.5815 45.1116 20.9345 43.6484L29.7813 6.7934L29.7837 6.79898ZM24.4957 45.2681C24.5984 45.374 24.8808 45.6018 25.3108 45.4991L62.1658 36.6524C62.6664 36.5304 62.7883 36.1229 62.8172 35.9529C62.846 35.7828 62.8653 35.356 62.4321 35.0769L51.9811 28.3161C51.5479 28.037 51.2655 27.5749 51.2078 27.0616C51.1532 26.5482 51.3329 26.038 51.7019 25.6722L65.4255 11.9486C66.2662 11.1079 66.2662 9.73779 65.4255 8.89714L60.8659 4.33756C60.0253 3.49691 58.6551 3.49691 57.8145 4.33756L44.0909 18.0612C43.77 18.382 43.3336 18.5617 42.8812 18.5617C42.8202 18.5617 42.7624 18.5585 42.7015 18.5521C42.1881 18.4976 41.726 18.212 41.4469 17.7788L34.6861 7.32777C34.407 6.89459 33.9802 6.91384 33.8102 6.94272C33.6401 6.9716 33.2326 7.09353 33.1107 7.59409L24.2639 44.4491C24.1612 44.8759 24.389 45.1615 24.4949 45.2641L24.4957 45.2681Z" fill="black"/>
<path d="M28.8118 55.8251C29.7551 55.8251 30.522 56.592 30.522 57.5353L30.522 67.0138C30.522 67.9571 29.7551 68.724 28.8118 68.724C27.8684 68.724 27.1016 67.9571 27.1016 67.0138L27.1016 57.5353C27.1016 56.592 27.8684 55.8251 28.8118 55.8251Z" fill="#8D1A14"/>
<path d="M15.8744 51.4707C16.2081 51.137 16.6477 50.9702 17.0841 50.9702C17.5237 50.9702 17.9601 51.137 18.2938 51.4707C18.9644 52.1413 18.9644 53.2227 18.2938 53.8901L11.5908 60.5931C10.9202 61.2637 9.83883 61.2637 9.17142 60.5931C8.5008 59.9225 8.5008 58.8411 9.17142 58.1737L15.8744 51.4707Z" fill="#8D1A14"/>
<path d="M2.75025 39.2396L12.2287 39.2396C13.172 39.2396 13.9389 40.0065 13.9389 40.9499C13.9389 41.8932 13.1721 42.6601 12.2287 42.6601L2.75025 42.6601C1.80692 42.6601 1.04004 41.8932 1.04004 40.9499C1.04004 40.0065 1.80692 39.2396 2.75025 39.2396Z" fill="#8D1A14"/>
<path d="M15.8744 30.4315L9.17142 23.7284C8.5008 23.0578 8.5008 21.9765 9.17142 21.3091C9.50513 20.9754 9.94472 20.8085 10.3811 20.8085C10.8207 20.8085 11.2571 20.9754 11.5909 21.3091L18.2939 28.0121C18.9645 28.6827 18.9645 29.764 18.2939 30.4315C17.6233 31.1021 16.5419 31.1021 15.8744 30.4315Z" fill="#8D1A14"/>
<path d="M40.5393 50.9672C40.9789 50.9672 41.4152 51.134 41.749 51.4677L48.452 58.1708C49.1226 58.8414 49.1226 59.9227 48.452 60.5901C47.7814 61.2607 46.7001 61.2607 46.0326 60.5901L39.3296 53.8871C38.659 53.2165 38.659 52.1351 39.3296 51.4677C39.6633 51.134 40.1028 50.9672 40.5393 50.9672Z" fill="#8D1A14"/>
</g>
<defs>
<clipPath id="clip0_607_6">
<rect width="69" height="69" fill="white" transform="matrix(1 -8.74228e-08 -8.74228e-08 -1 0.76416 69)"/>
</clipPath>
</defs>
</svg>
