<svg width="126" height="120" viewBox="0 0 126 120" fill="none" xmlns="http://www.w3.org/2000/svg">
<path d="M116.002 14.7021C109.861 8.53677 101.652 5.1382 92.8977 5.1382C84.144 5.1382 75.9563 8.53677 69.7938 14.7021L62.9999 21.4993L56.0535 14.5496C43.3365 1.9357 22.6715 2.00105 9.99815 14.6803C3.83566 20.8675 0.460449 29.0589 0.460449 37.795C0.460449 46.5311 3.85744 54.7225 9.99815 60.9096L16.9881 67.9028C16.0082 69.4496 15.4638 71.2361 15.4638 73.1096C15.4638 75.7239 16.4873 78.1857 18.36 80.0593C20.2762 81.9546 22.7804 82.8914 25.2846 82.8914C25.6548 82.8914 26.0032 82.826 26.3734 82.7825C26.3298 83.1528 26.2645 83.5014 26.2645 83.8718C26.2645 86.4861 27.2879 88.9478 29.1606 90.8214C31.0769 92.7168 33.5811 93.6536 36.0853 93.6536C36.4555 93.6536 36.8039 93.5882 37.1741 93.5446C37.1305 93.915 37.0652 94.2636 37.0652 94.6339C37.0652 97.2482 38.0886 99.71 39.9613 101.584C41.8776 103.479 44.3818 104.416 46.886 104.416C47.1908 104.416 47.4957 104.35 47.8005 104.329C47.757 104.677 47.6916 105.004 47.6916 105.352C47.6916 107.967 48.7151 110.429 50.5878 112.302C52.4823 114.197 54.9865 115.134 57.4907 115.134C59.6247 115.134 61.7587 114.394 63.5443 113.021C64.633 113.413 65.7654 113.609 66.8759 113.609C69.4019 113.609 71.8843 112.629 73.7788 110.734C75.3466 109.165 76.2612 107.161 76.5443 105.004C77.9161 105.679 79.3969 106.071 80.8994 106.071C83.4036 106.071 85.9078 105.113 87.824 103.217C89.2612 101.78 90.1976 99.9496 90.546 97.9671C92.1574 99.0564 94.0518 99.6664 96.0334 99.6664C98.6465 99.6664 101.107 98.6425 102.958 96.7907C104.809 94.9389 105.832 92.4771 105.832 89.8628C105.832 88.2943 105.44 86.8346 104.765 85.4839C106.856 85.2225 108.859 84.3293 110.471 82.7389C112.322 80.8871 113.345 78.4253 113.345 75.7893C113.345 73.1532 112.322 70.7568 110.471 68.8614L109.273 67.6632L116.067 60.8661C128.784 48.1214 128.784 27.4032 116.067 14.6586L116.002 14.7021ZM4.81556 37.8168C4.81556 30.2571 7.75526 23.1332 13.0903 17.7957C24.0869 6.79391 41.9865 6.75034 53.0049 17.665L76.2394 40.9103C76.7185 41.3896 76.8056 41.9778 76.8056 42.2828C76.8056 42.8057 76.6096 43.3068 76.2176 43.6771C74.5409 45.3546 72.298 46.2914 69.9245 46.2914C67.551 46.2914 65.3081 45.3546 63.6314 43.6771L56.0535 36.0957C56.0535 36.0957 55.9881 36.0521 55.9664 36.0303C53.2444 33.416 49.0417 33.9171 46.8424 36.1175C40.8977 42.065 31.2293 42.065 25.2846 36.1175L23.7385 34.5707C22.8893 33.7211 21.5174 33.7211 20.6682 34.5707C19.8189 35.4203 19.8189 36.7928 20.6682 37.6425L22.2142 39.1893C27.0266 44.0039 33.7553 45.7903 39.9831 44.5268L19.906 64.6132L13.1121 57.8161C7.77704 52.4568 4.83734 45.3546 4.83734 37.795L4.81556 37.8168ZM53.5928 109.252C52.5476 108.228 51.9814 106.856 51.9814 105.396C51.9814 104.655 52.1339 103.936 52.4169 103.261C52.6565 103.566 52.9178 103.849 53.1791 104.132L59.4722 110.429C57.5124 111.213 55.1607 110.821 53.5711 109.252H53.5928ZM70.6213 107.705C67.2461 111.082 63.4789 108.25 62.9128 107.705L56.2712 101.061C54.6816 99.1218 54.6816 97.7711 54.6816 97.2046C54.6816 95.745 55.2478 94.3943 56.2712 93.3703C57.7084 91.9325 59.7771 91.4096 61.6933 91.9978C62.5644 92.2811 63.3483 92.7386 63.9798 93.3703L71.4488 100.843C71.4706 100.974 72.2109 102.477 72.2109 103.849C72.2109 105.309 71.6448 106.681 70.5996 107.705H70.6213ZM84.6666 100.189C82.5543 102.302 79.092 102.302 76.958 100.189C76.958 100.189 67.0719 90.2986 67.0719 90.2768C66.4186 89.6014 65.9614 88.8389 65.7001 87.9893C65.5258 86.9436 65.0686 84.5471 67.0501 82.5646C68.0736 81.5407 69.4454 80.9743 70.9044 80.9743C72.3634 80.9743 73.7135 81.5407 74.7587 82.5646L84.6448 92.4553C85.69 93.5228 86.2562 94.8736 86.2562 96.3114C86.2562 97.7493 85.69 99.1435 84.6448 100.167L84.6666 100.189ZM99.8006 93.7625C97.7319 95.8321 94.1607 95.8321 92.092 93.7625L75.6297 77.3143C74.6063 76.3121 74.0401 74.9396 74.0401 73.4582C74.0401 71.9768 74.6063 70.6478 75.6515 69.6239C76.7185 68.5564 78.1121 68.0336 79.5058 68.0336C80.8994 68.0336 82.293 68.5564 83.36 69.6239L99.8006 86.0721C100.824 87.0961 101.39 88.4468 101.39 89.9282C101.39 91.4096 100.824 92.7386 99.7788 93.7625H99.8006ZM107.313 79.7107C105.244 81.7803 101.673 81.7803 99.6046 79.7107L88.6297 68.7307C87.5845 67.6632 87.0183 66.3125 87.0183 64.8746C87.0183 63.4368 87.5845 62.0425 88.6297 61.0186C89.6532 59.9946 91.025 59.4282 92.484 59.4282C93.943 59.4282 95.293 59.9946 96.3383 61.0186L107.313 71.9986C108.358 73.066 108.925 74.4386 108.925 75.8546C108.925 77.2707 108.358 78.6868 107.313 79.7107ZM106.115 64.635L99.4086 57.925C97.5577 56.0732 95.0971 55.0493 92.484 55.0493C89.8709 55.0493 87.4103 56.0732 85.5594 57.925C83.8609 59.6243 82.9027 61.8682 82.7503 64.2428C79.3098 63.0446 75.3466 63.7853 72.6029 66.5303C70.752 68.3821 69.7285 70.8439 69.7285 73.4582C69.7285 74.5911 69.9463 75.6586 70.3165 76.6825C67.9429 76.835 65.7218 77.7936 64.0233 79.4928C62.1724 81.3446 61.1707 83.7846 61.1707 86.4207C61.1707 86.7693 61.2143 87.1178 61.2578 87.4664C58.3399 87.1396 55.4002 88.1418 53.2662 90.2768C51.4153 92.1286 50.4136 94.5686 50.4136 97.2046C50.4136 97.6621 50.4571 98.1196 50.5225 98.5771C50.3483 98.7514 50.1958 98.9693 50.0216 99.1653C50.0216 99.1653 49.9999 99.1653 49.9781 99.1653C47.8659 100.603 44.9262 100.429 43.0535 98.5553C40.4404 95.9411 41.4856 92.4118 43.0535 90.8432L49.3248 84.5471L55.5962 78.2511C56.4454 77.4014 56.4454 76.0289 55.5962 75.1793C54.7469 74.3296 53.3751 74.3296 52.5258 75.1793L39.9831 87.7496C37.8491 89.8628 34.3868 89.8628 32.2746 87.7496C29.6397 85.1571 30.7067 81.6061 32.2746 80.0375L44.8173 67.4671C45.6665 66.6175 45.6665 65.245 44.8173 64.3953C43.968 63.5457 42.5962 63.5457 41.7469 64.3953L29.2042 76.9657C27.0702 79.0789 23.6297 79.0789 21.4956 76.9657C18.8826 74.3732 19.9278 70.8221 21.4956 69.2535L52.0468 38.6882C52.3952 38.7753 52.7436 38.9278 53.0267 39.2111L60.6046 46.7707C63.1087 49.2761 66.4404 50.6703 69.9898 50.6703C73.5392 50.6703 76.8709 49.2978 79.3533 46.7925C82.1842 43.9603 81.6615 39.9518 79.3969 37.8168L66.1791 24.5928L72.9731 17.7957C78.3081 12.4582 85.4069 9.49534 92.9848 9.49534C100.563 9.49534 107.683 12.4364 112.997 17.7957C124.015 28.8411 124.015 46.8143 112.997 57.8596L106.203 64.6568L106.115 64.635Z" fill="black"/>
</svg>
