<svg width="132" height="118" viewBox="0 0 132 118" fill="none" xmlns="http://www.w3.org/2000/svg">
<path d="M53.2119 89.0556C31.9437 89.0556 14.6406 71.8537 14.6406 50.7099C14.6406 29.5661 31.9437 12.3643 53.2119 12.3643C67.3121 12.3643 80.2827 20.0085 87.0625 32.3141C87.6095 33.3071 87.2432 34.5531 86.2443 35.0972C85.2465 35.6413 83.9926 35.2771 83.4451 34.284C77.3897 23.2926 65.8049 16.4648 53.2119 16.4648C34.2178 16.4648 18.7651 31.8272 18.7651 50.7102C18.7651 69.5932 34.2178 84.9553 53.2119 84.9553C64.509 84.9553 75.1016 79.4355 81.5479 70.1898C82.1967 69.2592 83.4812 69.0283 84.4177 69.6726C85.3537 70.3179 85.5865 71.5949 84.9379 72.5257C77.7214 82.8761 65.8611 89.0556 53.2119 89.0556Z" fill="black"/>
<path d="M59.2461 0.988281C62.6723 0.230791 66.2154 -0.55113 69.6055 0.542969C73.1458 1.68363 75.5838 4.45026 77.9414 7.12598C79.3272 8.69895 80.6364 10.1848 82.0693 11.2217C83.5309 12.279 85.3771 13.0721 87.332 13.9111C90.595 15.3119 93.9696 16.7598 96.1279 19.7061C97.822 22.0212 98.3649 24.7649 98.6719 27.1436C98.8169 28.2664 98.0184 29.2942 96.8887 29.4385C95.7575 29.5822 94.7257 28.7883 94.5811 27.665C94.3403 25.8016 93.9392 23.6854 92.793 22.1191C91.2991 20.08 88.5779 18.9116 85.6973 17.6748C83.6214 16.7838 81.4744 15.8621 79.6416 14.5361C77.8368 13.2297 76.3127 11.4997 74.8389 9.82715C72.7584 7.46563 70.7927 5.23502 68.333 4.44238C66.0123 3.6937 63.1599 4.32365 60.1406 4.99121C57.8892 5.48882 55.561 6.00287 53.2119 6.00293C50.8625 6.00293 48.5332 5.48889 46.2812 4.99121C43.262 4.32391 40.4103 3.69359 38.0898 4.44238C35.6294 5.23537 33.6646 7.46583 31.584 9.82715C30.1101 11.5 28.5859 13.2302 26.7812 14.5361C24.948 15.8623 22.8014 16.7838 20.7256 17.6748C17.8447 18.9116 15.1232 20.0802 13.6289 22.1201C12.1568 24.1316 11.8756 27.0527 11.5781 30.1455C11.3619 32.3952 11.1383 34.7219 10.4297 36.8896C9.75304 38.9608 8.58388 40.9109 7.45312 42.7969C5.82655 45.509 4.29004 48.0717 4.29004 50.71C4.29023 53.3477 5.82579 55.9094 7.45215 58.6211C8.58328 60.5072 9.75302 62.4581 10.4297 64.5303C11.1383 66.6973 11.3619 69.0237 11.5781 71.2734C11.8753 74.3661 12.1562 77.2878 13.6289 79.2998C15.1227 81.3391 17.8447 82.5077 20.7256 83.7441C22.8012 84.6353 24.9474 85.5561 26.7803 86.8818C27.6956 87.5422 28.6074 88.3598 29.6475 89.4521C30.311 90.1477 30.9574 90.8815 31.582 91.5908C33.6628 93.9529 35.6284 96.1839 38.0889 96.9766C40.4098 97.7255 43.2621 97.0948 46.2812 96.4277C48.5328 95.9301 50.8617 95.4161 53.2109 95.416C55.5602 95.416 57.889 95.9301 60.1406 96.4277C63.1599 97.0948 66.0115 97.7251 68.332 96.9766C70.7905 96.1837 72.7557 93.9549 74.8359 91.5957C75.4427 90.9072 76.0695 90.1956 76.7139 89.5176C77.773 88.4 78.7039 87.5624 79.6406 86.8838C81.4749 85.5566 83.6214 84.6354 85.6973 83.7441C88.5784 82.5074 91.2993 81.339 92.7939 79.2988C93.0731 78.9185 93.3098 78.5076 93.5186 78.043C93.9829 77.0093 95.2011 76.5454 96.2422 77.0068C97.2823 77.4686 97.7494 78.6811 97.2852 79.7148C96.9617 80.435 96.5722 81.1077 96.1279 81.7139C93.9701 84.6592 90.5952 86.1073 87.332 87.5078C85.3774 88.3468 83.5316 89.1404 82.0693 90.1982C81.3455 90.7228 80.5969 91.4011 79.7148 92.332C79.1212 92.9566 78.5464 93.6082 77.9375 94.2988C77.6763 94.5951 77.413 94.8914 77.1484 95.1875L85.8672 106.12C86.1477 106.533 86.1447 107.037 85.8584 107.447C85.5719 107.858 85.0442 108.116 84.4668 108.128L73.8203 108.357L70.2236 115.79C69.9931 116.266 69.453 116.596 68.8291 116.64C68.2052 116.683 67.6043 116.435 67.2773 115.998L55.3701 99.6797C54.6349 99.5788 53.9157 99.5166 53.2119 99.5166C52.3725 99.5166 51.5111 99.6064 50.627 99.7441L38.7012 116.001C38.3986 116.403 37.8641 116.644 37.2939 116.645C37.246 116.645 37.1975 116.643 37.1494 116.64C36.5262 116.595 35.9871 116.267 35.7568 115.791L32.1602 108.358L21.5137 108.128C20.9363 108.116 20.4084 107.857 20.1221 107.447C19.8356 107.037 19.8326 106.533 20.1133 106.12L28.5352 94.3555C28.5167 94.3345 28.4979 94.3139 28.4795 94.293C27.8537 93.5827 27.2628 92.9115 26.6543 92.2734C25.7924 91.3682 25.0626 90.7096 24.3564 90.2002C22.8923 89.1408 21.0457 88.3478 19.0908 87.5088C15.8277 86.1081 12.4533 84.6598 10.2949 81.7139C8.15823 78.7945 7.80957 75.1695 7.47266 71.6641C7.26852 69.5418 7.07634 67.537 6.50781 65.7979C5.97395 64.1631 4.97143 62.4912 3.91016 60.7217C2.06937 57.6518 0.166016 54.4774 0.166016 50.71C0.166026 46.9424 2.0694 43.768 3.91016 40.6982C4.97117 38.929 5.97395 37.2573 6.50781 35.623C7.07641 33.8835 7.26876 31.8784 7.47266 29.7559C7.80957 26.2504 8.15806 22.6257 10.2939 19.707C12.4527 16.76 15.8268 15.3118 19.0898 13.9111C21.0445 13.0721 22.8914 12.2795 24.3535 11.2217C25.7857 10.1851 27.0947 8.69888 28.4805 7.12598C30.8378 4.45026 33.2763 1.68316 36.8174 0.541992C40.2073 -0.552105 43.7505 0.231287 47.1768 0.988281C49.3045 1.45849 51.3144 1.90327 53.2109 1.90332C55.1077 1.90332 57.1181 1.45879 59.2461 0.988281ZM24.3252 105.484L33.3379 105.679C33.9995 105.693 34.5872 106.029 34.8311 106.532L37.6152 112.285L46.7412 100.526C43.4508 101.25 40.0634 101.925 36.8164 100.877C34.3898 100.095 32.4814 98.5496 30.7617 96.793L24.3252 105.484ZM75.0264 97.417C73.47 98.9093 71.7388 100.189 69.6055 100.877C68.4009 101.267 67.176 101.418 65.9443 101.418C63.8137 101.418 61.6619 100.963 59.5508 100.497L68.3691 112.277L71.1494 106.532C71.3932 106.029 71.9808 105.693 72.6426 105.679L81.6553 105.484L75.0264 97.417Z" fill="black"/>
<path d="M102.963 82.0085C87.0433 82.0085 74.0918 69.1327 74.0918 53.3062C74.0918 37.4798 87.0433 24.604 102.963 24.604C118.882 24.604 131.834 37.4798 131.834 53.3062C131.834 69.1327 118.882 82.0085 102.963 82.0085ZM102.963 28.7043C89.3174 28.7043 78.2162 39.7406 78.2162 53.3062C78.2162 66.8719 89.3174 77.9081 102.963 77.9081C116.608 77.9081 127.71 66.8719 127.71 53.3062C127.71 39.7406 116.608 28.7043 102.963 28.7043Z" fill="black"/>
<path d="M95.3259 67.8028C94.7972 67.8028 94.2692 67.6019 93.8674 67.2024L85.1181 58.5043C84.3128 57.7037 84.3128 56.4057 85.1181 55.6051C85.9234 54.8045 87.2288 54.8043 88.0346 55.6051L95.3767 62.9042L116.397 43.4444C117.231 42.6727 118.536 42.7189 119.312 43.5476C120.088 44.3761 120.042 45.6734 119.208 46.445L96.7313 67.2531C96.3343 67.6201 95.8298 67.8028 95.3259 67.8028Z" fill="black"/>
<path d="M35.0669 84.3146C33.928 84.3146 33.0046 83.3966 33.0046 82.2644V79.1943C33.0046 68.0284 42.1851 58.9438 53.4696 58.9438C58.911 58.9438 64.0053 61.045 67.8371 64.8606C71.6388 68.6373 73.7335 73.7281 73.7335 79.1943V82.0081C73.7335 83.1403 72.8102 84.0583 71.6713 84.0583C70.5324 84.0583 69.6091 83.1403 69.6091 82.0081V79.1943C69.6091 74.8241 67.9438 70.7633 64.9201 67.7595C61.8657 64.7181 57.8083 63.0442 53.4928 63.0442C44.4595 63.0442 37.1291 70.2892 37.1291 79.1943V82.2644C37.1291 83.3966 36.2057 84.3146 35.0669 84.3146Z" fill="black"/>
<path d="M53.4695 62.9538C46.2455 62.9538 40.3682 57.1112 40.3682 49.9294C40.3682 42.7477 46.2452 36.9048 53.4695 36.9048C60.6934 36.9048 66.5705 42.7475 66.5705 49.9294C66.5705 57.1112 60.6934 62.9538 53.4695 62.9538ZM53.4695 41.0051C48.5196 41.0051 44.4926 45.0086 44.4926 49.9294C44.4926 54.8503 48.5196 58.8535 53.4695 58.8535C58.4193 58.8535 62.4461 54.8501 62.4461 49.9294C62.4461 45.0088 58.4193 41.0051 53.4695 41.0051Z" fill="black"/>
</svg>
