<svg width="127" height="108" viewBox="0 0 127 108" fill="none" xmlns="http://www.w3.org/2000/svg">
<path d="M58.752 0C61.0367 0.000115229 63.1348 1.26179 64.207 3.2793L70.7334 15.5596H103.69L104.161 15.5713C108.997 15.8163 112.843 19.8151 112.843 24.7119V98.8477C112.843 103.744 108.997 107.743 104.161 107.988L103.69 108H9.41895C4.3644 108 0.266736 103.902 0.266602 98.8477V26.6826H0V6.17773C0.000260244 2.76612 2.76612 0.000259469 6.17773 0H58.752ZM4.38477 98.8477C4.3849 101.628 6.63906 103.882 9.41895 103.882H103.69C106.47 103.882 108.724 101.628 108.725 98.8477V24.7119C108.725 21.9319 106.47 19.6778 103.69 19.6777H4.38477V98.8477ZM6.17773 4.11914C5.04078 4.1194 4.1194 5.04078 4.11914 6.17773V15.5596H66.0703L60.5703 5.21191C60.2129 4.53947 59.5134 4.11926 58.752 4.11914H6.17773Z" fill="black"/>
<path d="M57.0503 31.2466C65.1824 31.2467 71.7954 37.8878 71.7954 46.0532V54.981H74.2397C77.6293 54.981 80.3879 57.7521 80.3882 61.1558V82.7319C80.3882 86.1358 77.6285 88.9077 74.2388 88.9077H39.8599C36.4702 88.9076 33.7104 86.1357 33.7104 82.7319V61.1558C33.7107 57.7522 36.4704 54.9811 39.8599 54.981H42.3052V46.0532C42.3052 37.8871 48.9181 31.2466 57.0503 31.2466ZM39.8618 58.7007C38.5097 58.7007 37.4165 59.798 37.4165 61.1558V82.7319C37.4166 84.0896 38.5097 85.187 39.8618 85.187H74.2407C75.5928 85.1869 76.6859 84.0896 76.686 82.7319V61.1558C76.686 59.798 75.5928 58.7008 74.2407 58.7007H39.8618ZM57.5073 62.3647C61.5433 62.3648 64.8296 65.4093 64.8296 69.1479C64.8295 72.1715 62.6677 74.705 59.7124 75.5835V78.6274C59.7123 79.751 58.7202 80.6704 57.5073 80.6704C56.2944 80.6704 55.3024 79.751 55.3022 78.6274V75.5835C52.3469 74.705 50.1851 72.1715 50.1851 69.1479C50.1851 65.4093 53.4713 62.3647 57.5073 62.3647ZM57.5073 66.4507C55.8974 66.4507 54.5962 67.6566 54.5962 69.1479C54.5963 70.6392 55.8975 71.8442 57.5073 71.8442C59.1172 71.8442 60.4184 70.6392 60.4185 69.1479C60.4185 67.6566 59.1173 66.4507 57.5073 66.4507ZM57.0513 34.9673C50.9572 34.9673 46.0112 39.9338 46.0112 46.0532V54.981H68.0913V46.0532C68.0913 39.9338 63.1453 34.9673 57.0513 34.9673Z" fill="black"/>
</svg>
