<svg width="136" height="110" viewBox="0 0 136 110" fill="none" xmlns="http://www.w3.org/2000/svg">
<g clip-path="url(#clip0_574_6)">
<path d="M60.4917 17.3477C49.856 17.3477 41.2036 25.9922 41.2036 36.6181C41.2036 47.2448 49.856 55.8892 60.4917 55.8892C71.1281 55.8892 79.7804 47.2448 79.7804 36.6181C79.7804 25.9922 71.1281 17.3477 60.4917 17.3477ZM60.4917 52.0238C51.9897 52.0238 45.0727 45.1123 45.0727 36.6181C45.0727 28.1239 51.9897 21.2132 60.4917 21.2132C68.9937 21.2132 75.9113 28.1239 75.9113 36.6181C75.9113 45.1123 68.9937 52.0238 60.4917 52.0238Z" fill="black"/>
<path d="M66.9108 30.225L58.2184 38.9101L54.0732 34.7679C53.3174 34.0143 52.0921 34.0143 51.3364 34.7679C50.5812 35.523 50.5812 36.7471 51.3364 37.5023L56.85 43.0109C57.2279 43.3877 57.7235 43.5765 58.2184 43.5765C58.7134 43.5765 59.209 43.3877 59.5869 43.0109L69.6477 32.9592C70.4028 32.2042 70.4028 30.98 69.6477 30.225C68.8919 29.4712 67.6666 29.4712 66.9108 30.225Z" fill="black"/>
<path d="M134.33 86.9108L117.223 80.5716C115.509 78.8819 107.262 71.2069 97.3009 69.5564C88.4321 68.0822 79.8518 70.2706 75.3179 71.7989C83.5222 66.1006 88.3167 58.5545 90.67 53.9565C92.2941 50.8291 93.1525 47.2511 93.1525 43.6091V11.7109C93.1525 10.6425 92.3089 9.77614 91.2686 9.77614C84.8727 9.77614 81.3053 7.63428 77.5277 5.36597C73.4169 2.8985 68.7569 0.101074 60.3405 0.101074C51.9219 0.101074 47.2619 2.8992 43.151 5.36818C39.3777 7.63499 35.8131 9.77614 29.4264 9.77614C28.3861 9.77614 27.5425 10.6425 27.5425 11.7109V43.6091C27.5425 47.2395 28.3946 50.8146 30.006 53.9485C32.7454 59.2837 38.6413 68.3555 49.119 74.1278C47.5933 75.0582 46.4093 76.4807 45.7825 78.1594C43.7307 77.3247 41.7478 76.4759 39.8172 75.6491C33.1417 72.7892 26.8371 70.0884 19.2557 68.621C15.2878 67.852 11.2717 69.9045 9.49756 73.6061L9.38926 73.8277C7.85929 76.9922 9.1211 80.8544 12.2002 82.4359L14.1668 83.4483C27.798 90.4669 38.5653 96.0102 49.7897 103.139C52.447 104.82 55.6386 105.559 58.7737 105.222C75.5541 103.402 93.5246 102.477 106.816 107.166C111.556 108.839 115.702 111.225 118.985 114.54L120.306 115.094C120.794 115.094 121.65 114.516 121.65 114.516C122.379 113.754 122.369 112.529 121.626 111.779C117.652 107.767 112.62 104.993 106.898 103.139C93.0312 98.6449 75.1134 99.559 58.3795 101.373C56.0689 101.625 53.7188 101.078 51.7677 99.8455C40.4038 92.6278 29.5707 87.0503 15.8553 79.9888L13.888 78.9756C12.6595 78.3448 12.1563 76.8076 12.7613 75.556L12.8725 75.3278C13.9064 73.1692 16.2445 71.9737 18.5565 72.4236C25.7507 73.8161 31.8792 76.4413 38.3672 79.2206C40.6138 80.1832 42.93 81.1753 45.3609 82.1481C45.8942 86.0846 49.2535 89.1601 53.263 89.1857L79.0953 89.3528H79.1073C80.1426 89.3528 80.9847 88.4944 80.9911 87.4304C80.9982 86.3613 80.1596 85.4899 79.1193 85.4833L53.287 85.3162C50.9842 85.3009 49.0863 83.4141 49.0551 81.1109L49.0558 80.829C49.0933 78.8361 50.7324 77.0925 52.7868 76.8585C59.0829 76.1447 65.8235 75.636 72.4686 76.7422C72.826 76.8003 73.1947 76.7538 73.528 76.6041C73.6433 76.5517 85.1409 71.4584 96.7008 73.3764C106.439 74.9906 114.776 83.5247 114.859 83.6104C115.056 83.8146 115.558 84.069 115.558 84.069L133.05 90.5505C133.262 90.629 133.478 90.6661 133.69 90.6661C134.462 90.6661 135.186 90.1755 135.462 89.3876C135.815 88.3818 135.309 87.2734 134.33 86.9108ZM66.6132 72.2759C62.7036 72.1208 58.8496 72.3539 55.1273 72.7191C42.8474 67.7993 36.2137 57.7406 33.3384 52.1424C32.0116 49.5623 31.3102 46.6115 31.3102 43.6091V13.5889C37.5689 13.2044 41.3684 10.9223 45.0533 8.70924C49.1103 6.27232 52.9424 3.97053 60.3405 3.97053C67.7364 3.97053 71.5692 6.27152 75.6262 8.70702C79.3146 10.9216 83.1176 13.2052 89.3849 13.5896V43.6091C89.3849 46.6181 88.6793 49.5667 87.3396 52.1454C84.5947 57.5092 78.2704 67.198 66.6132 72.2759Z" fill="black"/>
<path d="M107.231 36.6178C107.231 37.6852 108.097 38.5506 109.166 38.5506H119.119C120.187 38.5506 121.053 37.6852 121.053 36.6178C121.053 35.5505 120.187 34.6851 119.119 34.6851H109.166C108.097 34.6851 107.231 35.5505 107.231 36.6178Z" fill="black"/>
<path d="M103.335 24.4886C103.83 24.4886 104.326 24.2999 104.703 23.9231L111.742 16.8919C112.497 16.1367 112.497 14.9126 111.742 14.1575C110.986 13.4039 109.761 13.4039 109.005 14.1575L101.967 21.1887C101.212 21.9439 101.212 23.1679 101.967 23.9231C102.345 24.2999 102.84 24.4886 103.335 24.4886Z" fill="black"/>
<path d="M109.005 59.0794C109.383 59.4569 109.879 59.645 110.373 59.645C110.868 59.645 111.364 59.4562 111.742 59.0794C112.497 58.3243 112.497 57.1001 111.742 56.345L104.703 49.3138C103.948 48.5587 102.722 48.5602 101.967 49.3138C101.212 50.0689 101.212 51.2931 101.967 52.0482L109.005 59.0794Z" fill="black"/>
<path d="M13.753 36.6178C13.753 35.5505 12.8868 34.6851 11.8185 34.6851H1.86522C0.796909 34.6851 -0.0693359 35.5505 -0.0693359 36.6178C-0.0693359 37.6852 0.796909 38.5506 1.86522 38.5506H11.8185C12.8868 38.5506 13.753 37.6852 13.753 36.6178Z" fill="black"/>
<path d="M16.2797 23.9231C16.6576 24.2999 17.1532 24.4886 17.6481 24.4886C18.143 24.4886 18.6386 24.2999 19.0166 23.9231C19.7716 23.1679 19.7716 21.9439 19.0166 21.1887L11.9789 14.1575C11.2231 13.4039 9.99788 13.4039 9.24205 14.1575C8.48702 14.9126 8.48702 16.1367 9.24205 16.8919L16.2797 23.9231Z" fill="black"/>
<path d="M16.2797 49.3142L9.24205 56.3455C8.48702 57.1005 8.48702 58.3247 9.24205 59.0798C9.61997 59.4566 10.1156 59.6454 10.6104 59.6454C11.1054 59.6454 11.601 59.4566 11.9789 59.0798L19.0166 52.0486C19.7716 51.2935 19.7716 50.0693 19.0166 49.3142C18.2607 48.5606 17.0354 48.5606 16.2797 49.3142Z" fill="black"/>
</g>
<defs>
<clipPath id="clip0_574_6">
<rect width="135.833" height="110" fill="white"/>
</clipPath>
</defs>
</svg>
