<svg width="212" height="152" viewBox="0 0 212 152" fill="none" xmlns="http://www.w3.org/2000/svg">
<g clip-path="url(#clip0_624_305)">
<path d="M181.015 83.3878L160.301 37.2607C159.843 36.241 159.032 35.4762 157.974 35.0938C156.938 34.7114 155.804 34.7489 154.805 35.2288L141.501 41.4297C140.503 41.8871 139.752 42.7193 139.369 43.754C139.061 44.6387 139.061 45.561 139.347 46.4382C137.214 47.053 134.256 47.3604 132.544 46.9181C132.214 46.8206 130.953 46.2657 129.857 45.7859C124.286 43.3115 118.52 40.9121 114.691 41.0622C112.596 41.1372 109.863 41.7895 106.214 43.0942C103.136 41.1972 98.2935 39.3902 95.6807 39.3527C90.6804 39.2777 82.6319 43.2516 77.2714 45.8985C76.2128 46.4159 75.0642 46.9932 74.2758 47.3382L74.486 46.9183C74.9665 45.921 75.004 44.8038 74.6362 43.7692C74.2683 42.7345 73.5025 41.9097 72.5039 41.4449L59.1999 35.244C58.2013 34.7866 57.0676 34.7266 56.0316 35.109C54.9955 35.4914 54.1697 36.2637 53.7042 37.2759L33.0041 83.3877C32.0807 85.4196 32.9816 87.8414 35.0238 88.7787L47.3668 94.4773C47.9224 94.7247 48.5005 94.8597 49.0786 94.8597C50.6177 94.8597 52.0967 93.9974 52.81 92.5202L53.5382 90.9682C58.1105 96.0744 63.0132 99.0885 65.7611 100.506C64.207 103.235 63.2834 107.224 66.6245 110.433C68.8545 112.585 71.9101 112.487 74.14 112.008C74.2151 114.122 74.8683 116.806 77.3534 118.478C78.9901 119.573 80.8296 119.633 82.2936 119.416C82.5789 121.05 83.3897 122.812 85.1991 123.944C87.3539 125.309 89.8315 125.287 91.5056 125.054C92.1363 126.284 93.2925 127.858 95.4096 128.871C96.5658 129.426 97.677 129.658 98.7357 129.658C101.829 129.658 104.367 127.679 105.868 126.201C107.347 127.311 109.772 128.526 113.421 128.541C116.672 128.503 118.511 126.561 119.42 124.642C121.364 125.429 124.187 126.104 126.455 124.777C128.647 123.487 130.029 120.998 130.742 119.326C132.431 119.461 135.066 119.214 137.664 117.294C140.089 115.51 140.953 113.148 141.223 111.386C143.318 111.581 146.396 111.288 148.971 108.776C152.199 105.627 150.585 100.678 149.414 98.1067C151.434 96.7271 154.985 94.1328 156.757 91.8908C157.62 90.7811 158.739 89.9114 159.715 89.2815L161.269 92.5655C161.96 94.0426 163.461 94.905 165 94.905C165.578 94.905 166.157 94.7925 166.712 94.5226L179.055 88.824C181.037 87.8418 181.938 85.4198 181.015 83.3878ZM49.318 90.8708C49.258 91.0057 49.1078 91.0657 48.9727 91.0057L36.6297 85.3072C36.4945 85.2472 36.4345 85.0972 36.4945 84.9622L57.2312 38.8351C57.2687 38.7602 57.3063 38.7227 57.3813 38.7002C57.4189 38.6777 57.4414 38.6777 57.4789 38.6777C57.5165 38.6777 57.554 38.6777 57.5915 38.7002L70.8956 44.9011C70.9556 44.9385 71.0082 44.976 71.0307 45.051C71.0532 45.0885 71.0532 45.1635 71.0082 45.246L49.318 90.8708ZM75.1672 107.704C74.2062 108.086 70.9027 109.278 69.2661 107.681C66.6158 105.132 69.5964 101.578 70.0319 101.075C72.1642 98.961 78.7936 93.7425 81.9319 96.4267C82.8178 97.1915 83.2758 97.9413 83.3133 98.7135C83.3734 99.9432 82.4274 101.555 80.4303 103.647C78.8386 105.327 76.4362 106.916 75.1672 107.704ZM83.2833 115.194C82.7052 115.442 80.6706 116.094 79.5145 115.307C77.8027 114.152 77.9003 111.617 78.0504 110.41C79.552 109.428 81.6617 107.936 83.2383 106.301C84.1993 105.304 85.2355 104.112 86.0087 102.792C87.0673 102.56 89.1997 102.388 90.7161 104.442C91.985 106.129 91.5795 107.434 88.8166 110.718C86.8721 113.027 83.7037 114.962 83.2833 115.194ZM91.7748 121.125C90.7387 121.372 88.659 121.627 87.255 120.72C86.2339 120.068 86.0462 118.823 86.0237 117.991C87.3676 117.128 89.9429 115.321 91.7523 113.17C92.9986 111.692 94.6128 109.773 95.0933 107.524C96.1895 107.659 97.4584 108.026 98.2466 108.828C100.131 110.785 100.341 111.782 98.1715 114.662C96.4822 116.956 92.856 120.203 91.7748 121.125ZM105.612 119.798C105.574 120.045 105.514 120.278 105.462 120.51L104.133 122.355C104.095 122.415 100.619 127.153 97.0603 125.444C95.9266 124.904 95.311 124.079 94.9882 123.449C96.5648 122.047 99.6206 119.228 101.272 117.016C101.467 116.768 101.603 116.514 101.775 116.289C101.97 116.229 103.772 115.674 104.943 117.098C105.499 117.781 105.747 118.786 105.612 119.798ZM146.245 106.001C144.053 108.153 141.155 107.554 140.284 107.329C133.594 101.975 122.235 89.1686 118.511 84.8879C117.82 84.1006 116.627 84.0256 115.823 84.693C115.013 85.3828 114.923 86.6125 115.613 87.4223C119.36 91.7187 130.434 104.218 137.484 109.999C137.461 110.996 137.154 112.878 135.352 114.221C133.144 115.855 130.967 115.563 130.299 115.428C123.437 110.862 113.924 98.3998 110.733 94.0658C110.117 93.2186 108.946 93.0461 108.082 93.646C107.196 94.2608 107.009 95.468 107.639 96.3302C110.808 100.627 119.862 112.511 127.167 117.901C126.612 119.146 125.688 120.781 124.494 121.47C123.383 122.123 120.921 121.26 119.457 120.413C118.188 118.974 110.695 110.448 104.02 101.391C103.39 100.543 102.211 100.356 101.348 100.971C100.484 101.586 100.289 102.793 100.905 103.655C107.129 112.12 114.051 120.106 116.131 122.468C115.861 123.367 115.147 124.672 113.345 124.717C110.92 124.754 109.306 123.99 108.345 123.315C108.886 122.43 109.284 121.418 109.419 120.301C109.689 118.231 109.133 116.177 107.902 114.677C106.596 113.103 104.959 112.488 103.48 112.353C103.81 110.223 102.999 108.281 101.017 106.227C99.133 104.27 96.4601 103.79 94.6732 103.678C94.4405 103.198 94.1702 102.696 93.7873 102.178C91.8878 99.6289 89.3276 98.8565 87.1579 98.8565C87.1579 98.759 87.1804 98.6615 87.1804 98.5491C87.0828 96.7046 86.1819 95.0176 84.47 93.5404C79.0493 88.8766 71.0758 95.0549 68.3054 97.4918C65.9781 96.3596 60.287 93.173 55.3543 87.1821L72.2471 51.6716H72.2696C72.9453 51.6716 73.6886 51.5966 74.4619 51.3867C75.2502 51.1767 76.4965 50.5619 79.0192 49.3323C83.7491 47.008 91.6624 43.1538 95.6642 43.169C96.9556 43.1915 99.3357 43.9563 101.505 44.916C100.987 45.126 100.484 45.3359 99.9288 45.5683C97.5862 46.5656 95.1462 47.5253 92.969 48.3877C88.5845 50.1347 86.9926 50.787 86.2794 51.3268C83.8169 53.1863 71.9017 68.4672 74.3043 72.2453C75.4154 73.9924 78.5913 75.3944 82.1876 75.7394C86.2269 76.1218 94.1402 75.4544 102.33 66.9067C106.85 65.1821 112.248 64.3123 114.478 64.005C116.55 66.6368 122.879 74.622 127.414 79.6307C129.719 82.165 132.812 85.3667 135.816 88.4634C139.682 92.4523 143.654 96.5462 145.463 98.7882C146.266 100.295 147.979 104.307 146.245 106.001ZM82.1132 62.4465C83.6674 63.2712 85.0714 64.3434 85.3416 65.1307C83.6899 67.7625 81.385 69.2395 77.9013 69.9294C78.4419 68.3398 80.1462 65.3856 82.1132 62.4465ZM153.685 89.492C152.319 91.239 149.226 93.5409 147.191 94.9205C145.096 92.5436 141.905 89.2595 138.564 85.8029C137.716 84.9182 136.853 84.0334 136.012 83.1711C137.206 82.7662 138.61 82.2114 139.398 81.8065C140.284 81.3491 141.185 80.7868 142.086 80.1194C143.009 79.4296 143.107 78.0875 142.318 77.2627C141.643 76.5504 140.546 76.4754 139.781 77.0527C137.145 79.0472 134.397 79.7219 132.918 79.9544C131.957 78.9347 131.034 77.9599 130.246 77.0976C124.96 71.2641 116.889 60.9319 116.814 60.8194C116.814 60.8194 116.394 60.2646 116.123 60.1446C115.778 59.9947 115.102 60.0846 115.102 60.0846C114.772 60.1221 107.392 60.9094 101.13 63.2938C100.92 63.3688 100.402 63.5038 100.132 63.6987C99.8614 63.8712 99.4785 64.3885 99.3058 64.561C92.8639 71.1293 86.8501 72.104 83.5468 72.0065C85.4688 70.9493 87.3308 69.3747 88.8323 66.8778C88.8924 66.7803 89.1176 66.3979 89.2002 66.1505C89.2753 65.9031 89.2753 65.4232 89.2753 65.2282C89.1627 62.484 86.4899 60.467 84.3726 59.3199C86.0093 57.0929 87.586 55.2335 88.5995 54.4613C89.1175 54.1164 91.9256 52.9992 94.403 52.0245C96.5953 51.1622 99.073 50.165 101.438 49.1677C107.97 46.386 112.257 45.0439 114.892 44.9464C118.218 44.8114 124.787 47.7657 128.346 49.3403C130.156 50.1501 131.057 50.5325 131.635 50.6824C134.27 51.3723 138.227 50.8924 141.012 49.9926L158.04 85.7737C156.643 86.576 154.992 87.8199 153.685 89.492ZM177.38 85.3081L165.037 91.0066C164.902 91.0666 164.752 91.0066 164.692 90.8717L143.002 45.2686C142.964 45.1936 142.979 45.1186 143.002 45.0586C143.024 44.9986 143.062 44.9462 143.137 44.9087L156.441 38.7078C156.478 38.6853 156.516 38.6853 156.553 38.6853C156.591 38.6853 156.628 38.6853 156.651 38.7078C156.688 38.7303 156.764 38.7678 156.801 38.8427L177.538 84.9699C177.575 85.0748 177.515 85.2481 177.38 85.3081Z" fill="black"/>
<path d="M105.351 18.6208H107.235C107.776 18.6208 108.219 18.1784 108.219 17.6385V1.97516C108.219 1.4353 107.776 0.99292 107.235 0.99292H105.351C104.81 0.99292 104.367 1.4353 104.367 1.97516V17.6385C104.367 18.1859 104.81 18.6208 105.351 18.6208Z" fill="black"/>
<path d="M107.227 138.289H105.343C104.802 138.289 104.359 138.731 104.359 139.271V154.935C104.359 155.475 104.802 155.917 105.343 155.917H107.227C107.768 155.917 108.211 155.475 108.211 154.935V139.271C108.211 138.724 107.768 138.289 107.227 138.289Z" fill="black"/>
<path d="M64.288 26.3812C64.5958 26.8236 65.2114 26.936 65.6544 26.6286L67.2085 25.5714C67.6515 25.264 67.7641 24.6492 67.4563 24.2068L58.6946 11.4002C58.3868 10.9578 57.7711 10.8453 57.3282 11.1527L55.774 12.21C55.3311 12.5174 55.2185 13.1322 55.5263 13.5746L64.288 26.3812Z" fill="black"/>
<path d="M35.7525 56.6282L36.3832 54.8586C36.5784 54.3413 36.3081 53.7864 35.7901 53.5915L26.7956 50.3448C26.3151 50.1649 25.7595 50.4273 25.5643 50.9522L24.9337 52.7217C24.7385 53.2391 25.0088 53.7939 25.5268 53.9889L34.5213 57.2355C35.0018 57.4005 35.5799 57.1305 35.7525 56.6282Z" fill="black"/>
<path d="M41.5557 98.8051C41.4206 98.2877 40.865 97.9803 40.347 98.1153L26.2622 101.932C25.7367 102.082 25.4289 102.622 25.564 103.139L26.067 104.946C26.2022 105.463 26.7578 105.771 27.2758 105.636L41.3605 101.819C41.8786 101.684 42.1864 101.129 42.0513 100.612L41.5557 98.8051Z" fill="black"/>
<path d="M65.6938 126.233C65.2734 125.903 64.6577 125.985 64.3124 126.405L55.6408 137.592C55.3104 138.012 55.393 138.627 55.8135 138.972L57.2925 140.127C57.713 140.456 58.3286 140.374 58.674 139.954L67.3455 128.767C67.6759 128.347 67.5933 127.732 67.1729 127.388L65.6938 126.233Z" fill="black"/>
<path d="M148.265 126.403C147.934 125.983 147.326 125.901 146.883 126.231L145.404 127.386C144.984 127.715 144.901 128.323 145.232 128.765L153.903 139.952C154.234 140.372 154.842 140.454 155.285 140.125L156.764 138.97C157.184 138.64 157.267 138.033 156.936 137.59L148.265 126.403Z" fill="black"/>
<path d="M186.322 101.945L172.238 98.1289C171.72 97.994 171.179 98.3014 171.029 98.8188L170.526 100.626C170.391 101.143 170.699 101.683 171.217 101.833L185.301 105.649C185.819 105.784 186.36 105.477 186.51 104.96L187.013 103.138C187.148 102.62 186.841 102.08 186.322 101.945Z" fill="black"/>
<path d="M187.644 52.6915L187.014 50.952C186.818 50.4347 186.263 50.1872 185.745 50.3597L176.75 53.6063C176.232 53.8012 175.984 54.3561 176.157 54.8735L176.788 56.643C176.983 57.1604 177.539 57.4078 178.057 57.2353L187.051 53.9887C187.569 53.7713 187.839 53.2164 187.644 52.6915Z" fill="black"/>
<path d="M146.922 26.6286C147.365 26.9361 147.981 26.8236 148.288 26.3812L157.05 13.5746C157.358 13.1322 157.245 12.5174 156.802 12.21L155.248 11.1528C154.805 10.8453 154.19 10.9578 153.882 11.4002L145.12 24.2068C144.812 24.6492 144.925 25.264 145.368 25.5714L146.922 26.6286Z" fill="black"/>
</g>
<defs>
<clipPath id="clip0_624_305">
<rect width="211.422" height="150.914" fill="white" transform="translate(0.578125 0.830322)"/>
</clipPath>
</defs>
</svg>
