<svg width="151" height="132" viewBox="0 0 151 132" fill="none" xmlns="http://www.w3.org/2000/svg">
<g clip-path="url(#clip0_621_264)">
<path d="M65.7214 112.614H14.4353C13.666 112.614 12.9769 112.154 12.6831 111.443C12.3893 110.732 12.5496 109.914 13.0945 109.375L26.7981 95.6642C17.588 85.8029 12.5392 73.0026 12.5392 59.4099C12.5392 30.0614 36.3975 6.19019 65.7222 6.19019C95.051 6.19019 118.911 30.0601 118.911 59.4045C118.911 62.729 118.601 66.0482 117.986 69.2604C117.789 70.292 116.79 70.9601 115.764 70.7731C114.733 70.5753 114.06 69.5812 114.252 68.5496C114.824 65.5671 115.112 62.4885 115.112 59.4045C115.112 32.1563 92.958 9.99678 65.7285 9.99678C38.4936 9.99143 16.3394 32.1563 16.3394 59.399C16.3394 72.6115 21.4786 85.0175 30.8061 94.3329C31.1641 94.691 31.3617 95.172 31.3617 95.6745C31.3617 96.1769 31.1587 96.6633 30.8061 97.0214L19.021 108.812H65.7228C69.4838 108.812 73.1859 108.395 76.728 107.572C77.7483 107.326 78.7687 107.968 79.0092 108.994C79.2496 110.015 78.6138 111.036 77.5881 111.276C73.7683 112.169 69.7777 112.618 65.7228 112.618L65.7214 112.614Z" fill="black"/>
<path d="M69.5192 99.3107H61.9225C58.7811 99.3107 56.2222 96.7558 56.2222 93.6076V47.9997C56.2222 44.8568 58.7758 42.2966 61.9225 42.2966H69.5192C72.6605 42.2966 75.2195 44.8515 75.2195 47.9997V93.6076C75.2195 96.7505 72.6659 99.3107 69.5192 99.3107ZM61.9225 46.0964C60.8754 46.0964 60.0206 46.9462 60.0206 47.9991V93.6071C60.0206 94.6547 60.8754 95.5098 61.9225 95.5098H69.5192C70.5663 95.5098 71.421 94.66 71.421 93.6071V47.9991C71.421 46.9515 70.5663 46.0964 69.5192 46.0964H61.9225Z" fill="black"/>
<path d="M69.5192 38.4958H61.9225C58.7811 38.4958 56.2222 35.9409 56.2222 32.7928V25.1923C56.2222 22.0495 58.7758 19.4893 61.9225 19.4893H69.5192C72.6605 19.4893 75.2195 22.0441 75.2195 25.1923V32.7928C75.2195 35.9356 72.6659 38.4958 69.5192 38.4958ZM61.9225 23.2954C60.8754 23.2954 60.0206 24.1453 60.0206 25.1982V32.7986C60.0206 33.8462 60.8754 34.7014 61.9225 34.7014H69.5192C70.5663 34.7014 71.421 33.8516 71.421 32.7986V25.1982C71.421 24.1506 70.5663 23.2954 69.5192 23.2954H61.9225Z" fill="black"/>
<path d="M136.004 131.615C135.513 131.615 135.027 131.423 134.664 131.059L123.594 119.984C122.52 118.91 121.089 118.311 119.561 118.311H90.418C85.1826 118.311 80.9194 114.046 80.9194 108.808V82.2017C80.9194 76.9637 85.1826 72.6985 90.418 72.6985H128.407C133.642 72.6985 137.905 76.9637 137.905 82.2017V129.713C137.905 130.483 137.446 131.177 136.735 131.466C136.5 131.562 136.254 131.61 136.009 131.61L136.004 131.615ZM90.4132 76.5042C87.2719 76.5042 84.7129 79.0591 84.7129 82.2072V108.814C84.7129 111.957 87.2666 114.517 90.4132 114.517H119.556C122.094 114.517 124.482 115.506 126.271 117.301L134.098 125.132V82.2071C134.098 79.0643 131.544 76.5041 128.398 76.5041H90.409L90.4132 76.5042Z" fill="black"/>
<path d="M126.506 86.0072H92.3149C91.2625 86.0072 90.4131 85.1573 90.4131 84.1044C90.4131 83.0515 91.2625 82.2017 92.3149 82.2017H126.506C127.558 82.2017 128.407 83.0515 128.407 84.1044C128.407 85.1573 127.558 86.0072 126.506 86.0072Z" fill="black"/>
<path d="M126.506 93.608H92.3149C91.2625 93.608 90.4131 92.7581 90.4131 91.7052C90.4131 90.6523 91.2625 89.8025 92.3149 89.8025H126.506C127.558 89.8025 128.407 90.6523 128.407 91.7052C128.407 92.7582 127.558 93.608 126.506 93.608Z" fill="black"/>
<path d="M126.506 101.207H92.3149C91.2625 101.207 90.4131 100.357 90.4131 99.3044C90.4131 98.2514 91.2625 97.4016 92.3149 97.4016H126.506C127.558 97.4016 128.407 98.2514 128.407 99.3044C128.407 100.357 127.558 101.207 126.506 101.207Z" fill="black"/>
<path d="M126.506 108.814H92.3149C91.2625 108.814 90.4131 107.964 90.4131 106.911C90.4131 105.858 91.2625 105.008 92.3149 105.008H126.506C127.558 105.008 128.407 105.858 128.407 106.911C128.407 107.964 127.558 108.814 126.506 108.814Z" fill="black"/>
</g>
<defs>
<clipPath id="clip0_621_264">
<rect width="150.439" height="131.943" fill="white"/>
</clipPath>
</defs>
</svg>
