<svg width="151" height="132" viewBox="0 0 151 132" fill="none" xmlns="http://www.w3.org/2000/svg">
<g clip-path="url(#clip0_627_465)">
<path d="M65.7214 112.614H14.4353C13.666 112.614 12.9769 112.154 12.6831 111.443C12.3893 110.732 12.5496 109.915 13.0945 109.375L26.7981 95.6645C17.588 85.8032 12.5392 73.0028 12.5392 59.4102C12.5392 30.0617 36.3975 6.19043 65.7222 6.19043C95.051 6.19043 118.911 30.0603 118.911 59.4047C118.911 62.7293 118.601 66.0485 117.986 69.2607C117.789 70.2922 116.79 70.9604 115.764 70.7733C114.733 70.5756 114.06 69.5814 114.252 68.5498C114.824 65.5674 115.112 62.4887 115.112 59.4047C115.112 32.1565 92.958 9.99702 65.7285 9.99702C38.4936 9.99168 16.3394 32.1565 16.3394 59.3992C16.3394 72.6118 21.4786 85.0178 30.8061 94.3331C31.1641 94.6912 31.3617 95.1723 31.3617 95.6747C31.3617 96.1771 31.1587 96.6635 30.8061 97.0216L19.021 108.812H65.7228C69.4838 108.812 73.1859 108.396 76.728 107.572C77.7483 107.327 78.7687 107.968 79.0092 108.994C79.2496 110.015 78.6138 111.036 77.5881 111.277C73.7683 112.169 69.7777 112.618 65.7228 112.618L65.7214 112.614Z" fill="black"/>
<path d="M69.5187 99.3109H61.922C58.7807 99.3109 56.2217 96.756 56.2217 93.6079V47.9999C56.2217 44.8571 58.7753 42.2969 61.922 42.2969H69.5187C72.66 42.2969 75.219 44.8518 75.219 47.9999V93.6079C75.219 96.7507 72.6654 99.3109 69.5187 99.3109ZM61.922 46.0966C60.8749 46.0966 60.0201 46.9465 60.0201 47.9994V93.6073C60.0201 94.6549 60.8749 95.5101 61.922 95.5101H69.5187C70.5658 95.5101 71.4206 94.6602 71.4206 93.6073V47.9994C71.4206 46.9518 70.5658 46.0966 69.5187 46.0966H61.922Z" fill="black"/>
<path d="M69.5187 38.4958H61.922C58.7807 38.4958 56.2217 35.9409 56.2217 32.7928V25.1923C56.2217 22.0495 58.7753 19.4893 61.922 19.4893H69.5187C72.66 19.4893 75.219 22.0441 75.219 25.1923V32.7928C75.219 35.9356 72.6654 38.4958 69.5187 38.4958ZM61.922 23.2954C60.8749 23.2954 60.0201 24.1453 60.0201 25.1982V32.7986C60.0201 33.8462 60.8749 34.7014 61.922 34.7014H69.5187C70.5658 34.7014 71.4206 33.8516 71.4206 32.7986V25.1982C71.4206 24.1506 70.5658 23.2954 69.5187 23.2954H61.922Z" fill="black"/>
<path d="M136.004 131.615C135.513 131.615 135.026 131.423 134.663 131.059L123.594 119.985C122.52 118.91 121.088 118.312 119.56 118.312H90.4175C85.1821 118.312 80.9189 114.046 80.9189 108.808V82.2019C80.9189 76.964 85.1821 72.6987 90.4175 72.6987H128.406C133.642 72.6987 137.905 76.964 137.905 82.2019V129.713C137.905 130.483 137.445 131.178 136.735 131.466C136.5 131.562 136.254 131.611 136.008 131.611L136.004 131.615ZM90.4127 76.5044C87.2714 76.5044 84.7124 79.0593 84.7124 82.2075V108.814C84.7124 111.957 87.2661 114.517 90.4127 114.517H119.556C122.093 114.517 124.481 115.506 126.271 117.302L134.097 125.132V82.2073C134.097 79.0645 131.544 76.5043 128.397 76.5043H90.4085L90.4127 76.5044Z" fill="black"/>
<path d="M126.506 86.0072H92.3149C91.2625 86.0072 90.4131 85.1573 90.4131 84.1044C90.4131 83.0515 91.2625 82.2017 92.3149 82.2017H126.506C127.558 82.2017 128.407 83.0515 128.407 84.1044C128.407 85.1573 127.558 86.0072 126.506 86.0072Z" fill="black"/>
<path d="M126.506 93.6082H92.3149C91.2625 93.6082 90.4131 92.7584 90.4131 91.7055C90.4131 90.6525 91.2625 89.8027 92.3149 89.8027H126.506C127.558 89.8027 128.407 90.6526 128.407 91.7055C128.407 92.7584 127.558 93.6082 126.506 93.6082Z" fill="black"/>
<path d="M126.506 101.207H92.3149C91.2625 101.207 90.4131 100.358 90.4131 99.3046C90.4131 98.2517 91.2625 97.4019 92.3149 97.4019H126.506C127.558 97.4019 128.407 98.2517 128.407 99.3046C128.407 100.358 127.558 101.207 126.506 101.207Z" fill="black"/>
<path d="M126.506 108.814H92.3149C91.2625 108.814 90.4131 107.964 90.4131 106.911C90.4131 105.858 91.2625 105.008 92.3149 105.008H126.506C127.558 105.008 128.407 105.858 128.407 106.911C128.407 107.964 127.558 108.814 126.506 108.814Z" fill="black"/>
</g>
<defs>
<clipPath id="clip0_627_465">
<rect width="150.439" height="131.943" fill="white"/>
</clipPath>
</defs>
</svg>
