<svg width="138" height="129" viewBox="0 0 138 129" fill="none" xmlns="http://www.w3.org/2000/svg">
<g clip-path="url(#clip0_623_293)">
<path d="M78.3108 69.9831C77.7396 69.4117 76.8119 69.4117 76.2407 69.9782L73.3259 72.8836L70.411 69.9782C69.8398 69.4069 68.9121 69.4069 68.3409 69.9831C67.7697 70.5544 67.7697 71.4822 68.3458 72.0534L71.2557 74.954L68.3458 77.8545C67.7745 78.4259 67.7697 79.3536 68.3409 79.9249C68.629 80.213 69.0049 80.3546 69.376 80.3546C69.752 80.3546 70.123 80.213 70.4111 79.9249L73.3259 77.0195L76.2407 79.9249C76.5288 80.2081 76.8999 80.3546 77.2758 80.3546C77.6518 80.3546 78.0277 80.213 78.3109 79.9249C78.8822 79.3536 78.8822 78.4258 78.306 77.8545L75.3961 74.954L78.306 72.0534C78.8773 71.4821 78.8821 70.5543 78.3108 69.9831Z" fill="black"/>
<path d="M53.5846 57.3361L56.4994 60.2416C56.7875 60.5248 57.1586 60.6713 57.5345 60.6713C57.9105 60.6713 58.2864 60.5297 58.5696 60.2416C59.1408 59.6703 59.1408 58.7425 58.5647 58.1712L55.6548 55.2706L58.5647 52.3701C59.136 51.7988 59.1408 50.871 58.5696 50.2997C57.9983 49.7284 57.0707 49.7284 56.4995 50.2948L53.5847 53.2003L50.6698 50.2948C50.0986 49.7235 49.1709 49.7235 48.5997 50.2997C48.0285 50.871 48.0285 51.7988 48.6046 52.3701L51.5145 55.2706L48.6046 58.1663C48.0333 58.7376 48.0284 59.6654 48.5997 60.2367C48.8878 60.5248 49.2637 60.6664 49.6348 60.6664C50.0107 60.6664 50.3818 60.5248 50.6699 60.2367L53.5846 57.3361Z" fill="black"/>
<path d="M98.5822 46.6655C101.932 46.0014 104.466 43.0471 104.466 39.5117C104.466 35.4049 101.189 32.0649 97.1613 32.0649C93.5483 32.0649 90.526 34.6384 89.8424 38.0468L55.6358 38.0517C54.8253 38.0517 54.171 38.706 54.171 39.5167C54.171 40.3273 54.8252 40.9816 55.6358 40.9816H89.8424C90.4234 43.8676 92.6987 46.0942 95.6525 46.6656C95.3059 53.7022 93.2601 57.7405 85.1698 57.7405H74.9019C67.7638 57.7405 62.3252 61.0415 59.1704 67.287C56.4753 72.6194 56.0749 78.7232 56.0749 81.8879V97.2751C52.7841 97.9734 50.2256 100.957 50.2256 104.414C50.2256 108.521 53.5066 111.866 57.5396 111.866C61.6508 111.866 65.0002 108.521 65.0002 104.414C65.0002 100.884 62.4222 97.9343 59.0044 97.2653V81.8931C59.0044 76.9171 60.1518 60.6755 74.9022 60.6755H85.1701C96.0923 60.6706 98.241 53.7948 98.5822 46.6655ZM92.6256 39.5165C92.6256 37.0261 94.6616 34.9996 97.1615 34.9996C99.5343 34.9996 101.536 37.0651 101.536 39.5165C101.536 41.9239 99.5734 43.8772 97.1615 43.8772C94.6176 43.8772 92.6256 41.9631 92.6256 39.5165ZM62.0612 104.408C62.0612 106.903 60.0301 108.93 57.5303 108.93C55.1525 108.93 53.1458 106.859 53.1458 104.408C53.1458 102.084 55.1964 100.047 57.5303 100.047C59.9911 100.043 62.0612 102.04 62.0612 104.408Z" fill="black"/>
<path d="M41.7457 32.0708C37.7176 32.0708 34.4414 35.4109 34.4414 39.5175C34.4414 43.5363 37.7176 46.808 41.7457 46.808C45.9301 46.808 49.2062 43.6046 49.2062 39.5175C49.2062 35.4108 45.8568 32.0708 41.7457 32.0708ZM41.7457 43.8782C39.3337 43.8782 37.371 41.92 37.371 39.5175C37.371 37.0711 39.3729 35.0006 41.7457 35.0006C44.2456 35.0006 46.2767 37.0271 46.2767 39.5175C46.2767 41.9639 44.2845 43.8782 41.7457 43.8782Z" fill="black"/>
<path d="M126.882 113.911C127.902 112.685 128.513 111.113 128.513 109.399C128.513 107.685 127.897 106.112 126.877 104.887C129.694 103.949 131.73 101.293 131.73 98.1723C131.73 94.2707 128.552 91.0966 124.641 91.0966H117.2C121.36 88.1766 124.089 83.352 124.089 77.9021C124.089 71.8323 120.71 66.5341 115.73 63.7849L115.725 30.4191C115.725 24.9159 111.238 20.438 105.726 20.438H92.1667V17.6448C92.1667 14.5977 89.5692 11.9218 86.6104 11.9218H77.1822C76.4889 8.24484 73.2518 5.45654 69.3751 5.45654C65.5716 5.45654 62.4029 8.24484 61.7242 11.9218H52.3057C49.3079 11.9218 46.5737 14.6466 46.5737 17.6448V20.438H33.1908C27.6784 20.438 23.1914 24.9158 23.1914 30.4191V61.7048C17.0394 63.6775 12.5817 69.3908 12.5817 76.1144C12.5817 79.6449 13.7535 82.9801 15.9017 85.6707C15.6527 86.0662 15.5062 86.535 15.5062 87.033V91.6916C15.5062 92.8049 16.2191 93.7522 17.2054 94.1087L14.7104 108.147H14.3589C12.5035 108.147 10.9948 109.651 10.9948 111.502V116.009H10.5798C8.3827 116.009 6.7373 117.723 6.7373 119.989V124.862C6.7373 127.133 8.3827 128.847 10.5701 128.847H45.0942C47.3304 128.847 49.0881 127.094 49.0881 124.862V123.485H92.0004C93.1039 125.961 95.594 127.694 98.4795 127.694L124.64 127.699C128.551 127.699 131.73 124.525 131.73 120.623C131.73 117.498 129.694 114.847 126.882 113.909L126.882 113.911ZM124.641 94.0219C126.935 94.0219 128.801 95.8824 128.801 98.1677C128.801 100.458 126.935 102.323 124.641 102.323H98.4798C96.1851 102.323 94.3199 100.458 94.3199 98.1677C94.3199 95.8824 96.1851 94.0219 98.4798 94.0219H124.641ZM121.155 77.8984C121.155 85.1743 115.217 91.093 107.923 91.093C100.628 91.093 94.6911 85.1746 94.6911 77.8984C94.6911 70.6222 100.628 64.7039 107.923 64.7039C115.222 64.7039 121.155 70.6222 121.155 77.8984ZM69.3702 8.38785C71.6259 8.38785 73.535 9.87719 74.1648 11.9232H64.7317C65.3616 9.90157 67.2268 8.38785 69.3702 8.38785ZM49.4939 17.6462C49.4939 16.235 50.8806 14.853 52.2965 14.853H86.6056C87.9581 14.853 89.2325 16.2105 89.2325 17.6462V20.4394H49.4937L49.4939 17.6462ZM15.5023 76.1161C15.5023 69.3774 21.0683 63.8937 27.9039 63.8937C34.6662 63.923 40.1688 69.4068 40.159 76.1161C40.159 79.2364 39.0311 82.1761 36.9756 84.4565H18.7004C16.6352 82.1858 15.5023 79.2461 15.5023 76.1161ZM20.1455 94.2672H35.3595L37.8301 108.149H17.6801L20.1455 94.2672ZM18.4268 91.3373V87.3868H37.0782V91.3373H18.4268ZM13.9154 111.505C13.9154 111.275 14.1155 111.08 14.3499 111.08H41.1645C41.3989 111.08 41.5942 111.275 41.5942 111.505V116.012H13.9146L13.9154 111.505ZM46.1546 124.866C46.1546 125.476 45.7054 125.92 45.0902 125.92L10.5711 125.925C9.71179 125.925 9.66785 125.046 9.66785 124.87V119.997C9.66785 119.821 9.71179 118.947 10.5711 118.947H45.0952C45.7007 118.947 46.1596 119.397 46.1596 119.997L46.1546 124.866ZM91.3906 120.564H49.0832V119.992C49.0832 117.761 47.3304 116.013 45.0893 116.013H44.5132V111.505C44.5132 109.655 43.0045 108.151 41.154 108.151H40.8025L38.3026 94.1123C39.2938 93.7509 40.0018 92.8036 40.0018 91.6951V87.0366C40.0018 86.5873 39.8846 86.1674 39.6844 85.7963C41.8864 83.0715 43.0876 79.6924 43.0876 76.1179C43.0925 67.802 36.2862 61.0045 27.9073 60.9657C27.2969 60.9657 26.6964 61.0048 26.1056 61.0732L26.1105 30.4212C26.1105 26.5343 29.2842 23.3701 33.1803 23.3701H105.725C109.621 23.3701 112.794 26.5343 112.794 30.4212V62.5283C111.256 62.0399 109.621 61.7762 107.922 61.7762C99.0111 61.7762 91.7602 69.0082 91.7602 77.8998C91.7602 83.3493 94.4895 88.1739 98.6494 91.0943H98.4736C94.5628 91.0943 91.3842 94.2684 91.3842 98.17C91.3842 99.884 91.9994 101.461 93.015 102.687C90.1978 103.624 88.1569 106.276 88.1569 109.401C88.1569 112.522 90.1929 115.173 93.0101 116.116C92.0092 117.327 91.4037 118.874 91.3891 120.564L91.3906 120.564ZM91.0928 109.401C91.0928 107.116 92.9628 105.255 95.2624 105.255H121.418C123.718 105.255 125.588 107.116 125.588 109.401C125.588 111.686 123.718 113.547 121.418 113.547H95.2624C92.9628 113.547 91.0928 111.686 91.0928 109.401ZM124.641 124.773H98.4748C96.1801 124.773 94.3149 122.912 94.3149 120.627C94.3149 118.342 96.1801 116.481 98.4748 116.481H124.636C126.93 116.481 128.796 118.342 128.796 120.627C128.8 122.912 126.935 124.773 124.641 124.773Z" fill="black"/>
</g>
<defs>
<clipPath id="clip0_623_293">
<rect width="137.492" height="128.86" fill="white" transform="translate(0.488281)"/>
</clipPath>
</defs>
</svg>
