<svg width="138" height="130" viewBox="0 0 138 130" fill="none" xmlns="http://www.w3.org/2000/svg">
<g clip-path="url(#clip0_625_2)">
<path fill-rule="evenodd" clip-rule="evenodd" d="M74.4597 18.7735L76.7155 25.7744L84.0722 25.7626C84.8555 25.7626 85.4858 26.3932 85.4858 27.177C85.4858 27.6484 85.2561 28.0668 84.9026 28.3202L84.9085 28.3261L78.9538 32.6399L81.2391 39.6349C81.4805 40.3774 81.0741 41.1788 80.332 41.4205C79.849 41.5796 79.3366 41.4618 78.9773 41.1494L73.1109 36.8711L67.1679 41.2084C66.5376 41.6681 65.6541 41.5266 65.1947 40.8961C64.9179 40.513 64.8589 40.0416 64.9944 39.6291H64.9885L67.2738 32.6341L61.319 28.3203C60.6829 27.8606 60.5416 26.9708 61.001 26.3402C61.3014 25.9277 61.7785 25.7215 62.2556 25.7568L69.5062 25.7686L71.7621 18.7677C72.0036 18.0252 72.7987 17.6126 73.5409 17.8543C73.9944 18.0075 74.3242 18.3551 74.4597 18.7735ZM17.0198 123.399H129.196V112.922H17.0198V123.399ZM130.621 126.24H15.607C14.8236 126.24 14.1875 125.603 14.1875 124.82V111.507C14.1875 110.724 14.8236 110.087 15.607 110.087H26.1972V98.189C26.1972 97.4052 26.8333 96.7688 27.6167 96.7688H34.9263V84.8707C34.9263 84.087 35.5624 83.4505 36.3458 83.4505H109.883C110.667 83.4505 111.303 84.0869 111.303 84.8707V96.7688H118.612C119.396 96.7688 120.032 97.4052 120.032 98.189V110.087H130.622C131.405 110.087 132.042 110.724 132.042 111.507V124.82C132.042 125.603 131.404 126.24 130.621 126.24ZM29.0298 110.087H117.186V99.6093H29.0298V110.087ZM37.7589 96.7688H108.457V86.291H37.7589V96.7688ZM73.1103 11.6252C68.1391 11.6252 63.6392 13.6406 60.382 16.8995C57.1247 20.1584 55.1104 24.6606 55.1104 29.6344C55.1104 34.6082 57.1247 39.1103 60.382 42.3693C63.6392 45.6282 68.1391 47.6436 73.1103 47.6436C78.0815 47.6436 82.5814 45.6282 85.8386 42.3693C89.0958 39.1103 91.1102 34.6082 91.1102 29.6344C91.1102 24.6606 89.0958 20.1584 85.8386 16.8995C82.5814 13.6466 78.0815 11.6252 73.1103 11.6252ZM83.8302 18.909C81.0854 16.1628 77.2982 14.4656 73.1103 14.4656C68.9224 14.4656 65.1351 16.1628 62.3904 18.909C59.6457 21.6551 57.9494 25.4443 57.9494 29.6344C57.9494 33.8243 59.6457 37.6136 62.3904 40.3598C65.1351 43.1059 68.9224 44.8031 73.1103 44.8031C77.2982 44.8031 81.0854 43.1059 83.8302 40.3598C86.5749 37.6136 88.2712 33.8244 88.2712 29.6344C88.2712 25.4504 86.5749 21.6551 83.8302 18.909ZM73.1103 0.894534C71.3609 0.894534 69.7235 1.4249 68.3452 2.32655C66.9316 3.25765 65.8007 4.5836 65.1234 6.14517C64.7876 6.91717 64.4284 7.45344 64.0219 7.66556C63.6744 7.84236 63.1502 7.8011 62.3905 7.47109C60.7766 6.7816 58.9978 6.60481 57.3015 6.92892C55.6463 7.24715 54.0679 8.0427 52.7956 9.31556C51.5587 10.5531 50.7754 12.0852 50.4396 13.6999C50.098 15.3559 50.2393 17.0884 50.8578 18.6796C51.17 19.4692 51.2936 20.0998 51.1523 20.5359C51.0286 20.9072 50.634 21.2431 49.8683 21.5554C48.2368 22.2037 46.8526 23.3352 45.8808 24.7613C44.9325 26.1579 44.3788 27.8434 44.3788 29.6407C44.3788 31.444 44.9325 33.1235 45.8808 34.5202C46.8349 35.9287 48.1956 37.0425 49.7918 37.6966L49.8684 37.732C50.6341 38.0384 51.0346 38.3743 51.1524 38.7515C51.2938 39.1876 51.1642 39.8181 50.8579 40.6078C50.2394 42.1931 50.0981 43.9315 50.4397 45.5875C50.6164 46.4538 50.9286 47.3024 51.3703 48.0921L42.0817 64.1921C41.8049 64.6754 41.6694 65.2057 41.6753 65.7361C41.6871 66.2782 41.8402 66.8027 42.1406 67.2741C42.441 67.7455 42.8533 68.1109 43.3304 68.3525C43.8075 68.5882 44.3435 68.6943 44.9031 68.6472L51.4705 68.0932C51.5117 68.0873 51.5412 68.0932 51.5588 68.0991V68.105C51.5824 68.1168 51.606 68.1404 51.6177 68.1698L54.4214 74.1395V74.1453C54.6629 74.6522 55.0222 75.0706 55.464 75.3652C55.9057 75.6599 56.424 75.8307 56.9895 75.8543C57.549 75.8779 58.085 75.7541 58.5504 75.4949C59.0158 75.2356 59.4103 74.8525 59.693 74.3693L69.3939 57.5557C70.5248 58.092 71.7852 58.3984 73.1045 58.3984C74.4239 58.3984 75.6843 58.0978 76.8152 57.5557L86.5161 74.3693H86.522C86.8047 74.8584 87.1993 75.2414 87.6587 75.4949C88.124 75.7483 88.6542 75.8779 89.2197 75.8543C89.7852 75.8307 90.3093 75.6599 90.7451 75.3652C91.1928 75.0706 91.5521 74.6521 91.7877 74.1453V74.1395L94.5914 68.1698C94.6031 68.1404 94.6267 68.1168 94.6503 68.105C94.6679 68.0932 94.6974 68.0932 94.7386 68.0932L101.306 68.6472C101.86 68.6943 102.396 68.5882 102.879 68.3525C103.362 68.1109 103.774 67.7455 104.068 67.2741C104.369 66.8027 104.522 66.2782 104.534 65.7361C104.546 65.2057 104.41 64.6753 104.127 64.1921L94.8388 48.0921C95.2805 47.3024 95.5927 46.4598 95.7694 45.5875C96.111 43.9315 95.9697 42.199 95.3512 40.6078C95.0449 39.8182 94.9153 39.1876 95.0567 38.7515C95.1745 38.3802 95.575 38.0384 96.3407 37.732C97.9722 37.0838 99.3564 35.9523 100.328 34.5262C101.277 33.1295 101.83 31.4441 101.83 29.6467C101.83 27.8434 101.277 26.1639 100.328 24.7672C99.374 23.3588 98.0134 22.2449 96.4172 21.5908L96.3406 21.5554C95.5749 21.249 95.1744 20.9131 95.0566 20.5359C94.9152 20.0999 95.0448 19.4693 95.3511 18.6796C95.9754 17.0943 96.1109 15.3559 95.7693 13.6999C95.4335 12.0852 94.6502 10.5531 93.4133 9.31556L93.4074 9.32145C92.1292 8.04265 90.5566 7.25298 88.9015 6.93481C87.2052 6.6107 85.4205 6.78749 83.8125 7.47697C83.0527 7.80108 82.5285 7.84822 82.181 7.67144C81.7746 7.46518 81.4212 6.92891 81.0796 6.15105C80.3963 4.58933 79.2714 3.2634 77.8578 2.33243C76.4972 1.4249 74.8595 0.894534 73.1103 0.894534ZM92.9354 50.4135L101.694 65.5888C101.712 65.6182 101.723 65.6477 101.723 65.6713C101.723 65.6831 101.712 65.7066 101.688 65.742C101.67 65.7715 101.653 65.795 101.635 65.8009C101.617 65.8068 101.588 65.8127 101.553 65.8068L94.9851 65.2529C94.3608 65.1998 93.76 65.3413 93.2476 65.6418C92.7352 65.9365 92.317 66.3902 92.046 66.9619L89.2424 72.9256C89.2247 72.9551 89.2129 72.9786 89.1952 72.9904C89.1776 73.0022 89.1481 73.0081 89.1187 73.014C89.0833 73.014 89.0539 73.0081 89.0362 73.0022C89.0126 72.9904 88.995 72.9727 88.9832 72.9492L88.9773 72.9433H88.9832L79.1646 55.9305C79.9833 55.1409 80.643 54.1922 81.1083 53.1372C81.4441 52.3652 81.8034 51.8289 82.2098 51.6168C82.5573 51.44 83.0815 51.4812 83.8413 51.8113C85.4551 52.5007 87.2339 52.6775 88.9302 52.3534C90.3615 52.0706 91.7516 51.4272 92.9354 50.4135ZM67.0668 55.9235L57.2482 72.9362C57.2305 72.9657 57.2129 72.9893 57.1952 72.9951C57.1775 73.0069 57.1481 73.0128 57.1127 73.0069C57.0833 73.0069 57.0538 72.9952 57.0362 72.9834C57.0185 72.9716 57.0067 72.948 56.9891 72.9185L54.1854 66.9548C53.9144 66.3832 53.4962 65.9294 52.9838 65.6348V65.6407L52.9779 65.6348C52.4596 65.3342 51.8588 65.1928 51.2404 65.2458L44.673 65.7998C44.6318 65.8057 44.6082 65.7998 44.5905 65.7939C44.5788 65.788 44.5611 65.7703 44.5375 65.7349C44.514 65.6996 44.5022 65.676 44.5022 65.6642C44.5022 65.6407 44.5081 65.6112 44.5317 65.5817L53.2842 50.4125C54.4622 51.4203 55.8522 52.0686 57.3013 52.3454C58.9976 52.6695 60.7823 52.4927 62.3903 51.8032C63.1501 51.4791 63.6743 51.432 64.0217 51.6087C64.4281 51.815 64.7816 52.3513 65.1232 53.1291C65.5826 54.184 66.2481 55.1337 67.0668 55.9235ZM76.32 4.68917C75.4012 4.08808 74.2998 3.7345 73.11 3.7345C71.9201 3.7345 70.8188 4.08809 69.8999 4.68917C68.9458 5.31973 68.1801 6.21544 67.7206 7.27616C67.1258 8.63156 66.3718 9.63926 65.3116 10.1815C64.1925 10.7531 62.8848 10.7649 61.2828 10.0813C60.1931 9.61573 58.9857 9.49198 57.837 9.71591C56.7238 9.92805 55.6636 10.4643 54.8037 11.3247C53.9673 12.1615 53.4313 13.1928 53.2134 14.2653C52.9837 15.385 53.0779 16.5694 53.502 17.6421C54.0439 19.021 54.2147 20.2645 53.8495 21.396C53.4608 22.5923 52.5478 23.5293 50.9222 24.1776H50.9163C49.8149 24.6136 48.8783 25.3797 48.2245 26.3462C47.5942 27.2773 47.2232 28.4147 47.2232 29.6404C47.2232 30.8662 47.5942 32.0035 48.2245 32.9347C48.8665 33.8834 49.7794 34.6319 50.8515 35.0739L50.9221 35.0975C52.5419 35.7457 53.4607 36.6827 53.8495 37.8791C54.2146 39.0105 54.0379 40.2539 53.5019 41.633C53.0779 42.7114 52.9836 43.89 53.2133 45.0097C53.4372 46.0822 53.9673 47.1135 54.8037 47.9503C55.6636 48.8107 56.7237 49.347 57.837 49.5591C58.9855 49.7771 60.193 49.6593 61.2827 49.1937C62.8848 48.5102 64.1924 48.5219 65.3115 49.0936C66.3717 49.6357 67.1315 50.6434 67.7206 51.9989C68.1388 52.9594 68.8103 53.7962 69.6466 54.4092C69.6878 54.4386 69.7349 54.4681 69.7703 54.4976L69.8998 54.586C70.8187 55.1871 71.92 55.5406 73.1099 55.5406C74.2997 55.5406 75.4011 55.1871 76.3199 54.586L76.4436 54.5035C76.4907 54.4681 76.5379 54.4328 76.585 54.4033C77.4155 53.7904 78.0869 52.9595 78.5051 51.9988C79.1 50.6434 79.8539 49.6357 80.9142 49.0935C82.0333 48.5219 83.3409 48.5101 84.943 49.1937C86.0326 49.6593 87.24 49.783 88.3887 49.5591C89.4783 49.3528 90.515 48.8401 91.3513 48.0211C91.369 47.9975 91.3925 47.9739 91.4161 47.9503C92.2525 47.1135 92.7885 46.0822 93.0064 45.0097C93.2361 43.8901 93.1419 42.7115 92.7178 41.633C92.1759 40.254 92.0051 39.0105 92.3703 37.8791C92.759 36.6828 93.672 35.7457 95.2976 35.0975H95.3035C96.4049 34.6614 97.3415 33.8953 97.9953 32.9347C98.6255 32.0036 98.9966 30.8663 98.9966 29.6405C98.9966 28.4147 98.6255 27.2774 97.9953 26.3463C97.3533 25.3975 96.4404 24.6491 95.3683 24.207L95.2977 24.1776C93.6779 23.5293 92.759 22.5923 92.3703 21.396C92.0051 20.2645 92.1819 19.0211 92.7178 17.6421C93.1419 16.5637 93.2362 15.385 93.0065 14.2653C92.7826 13.1928 92.2525 12.1616 91.4161 11.3247L91.422 11.3188L91.4161 11.3129C90.5621 10.4584 89.5019 9.92216 88.3828 9.71002C87.2284 9.49198 86.0268 9.60984 84.9371 10.0754C83.335 10.759 82.0274 10.7531 80.9083 10.1756C79.8481 9.63341 79.0883 8.63165 78.4992 7.27027C78.0398 6.22131 77.2742 5.31962 76.32 4.68917ZM74.341 27.6248L73.11 23.8179L71.8789 27.6248C71.6964 28.1964 71.1604 28.6089 70.5301 28.6089L66.5309 28.603L69.7703 30.9485C70.2533 31.2961 70.483 31.9326 70.2887 32.5337L69.0459 36.3406L72.2559 33.9951C72.7389 33.6297 73.428 33.6003 73.9405 33.9774L77.174 36.3405L75.943 32.5866C75.7251 32.0032 75.9136 31.3314 76.4437 30.9484L79.6831 28.603L75.7544 28.6089C75.1301 28.6383 74.5354 28.2494 74.341 27.6248Z" fill="black"/>
</g>
<defs>
<clipPath id="clip0_625_2">
<rect width="137.492" height="128.86" fill="white" transform="translate(0 0.895508)"/>
</clipPath>
</defs>
</svg>
