<svg width="137" height="143" viewBox="0 0 137 143" fill="none" xmlns="http://www.w3.org/2000/svg">
<path d="M115.378 62.9712H111.805V43.1023C111.805 42.2169 111.017 41.5029 110.05 41.5029H104.718L108.949 34.8292C109.184 34.4627 109.246 34.0247 109.126 33.6154C109.006 33.206 108.714 32.8585 108.306 32.6443L74.4682 14.8372C74.0661 14.623 73.5856 14.5659 73.1365 14.6754C72.6873 14.7849 72.3061 15.0514 72.071 15.4227L69.277 19.8306L59.7874 14.8372C58.9466 14.3945 57.8759 14.6563 57.3902 15.4227L40.8717 41.5027H28.2851C20.822 41.5027 14.748 47.0387 14.748 53.8408V122.51C14.748 127.527 19.2291 131.611 24.7338 131.611H115.389C120.888 131.611 125.364 127.527 125.364 122.51V72.0769C125.364 67.0597 120.888 62.9755 115.389 62.9755L115.378 62.9712ZM121.848 108.206H91.2486C84.9763 108.206 79.8738 103.555 79.8738 97.8386C79.8738 92.1218 84.9763 87.4712 91.2486 87.4712H121.848V108.211V108.206ZM108.295 44.7022V62.9712H91.1123L102.691 44.7022H108.295ZM74.2327 18.4078L105.03 34.6112L87.0598 62.9712H76.4318L94.2673 34.8244C94.5023 34.4579 94.565 34.02 94.4449 33.6106C94.3247 33.2013 94.0323 32.8538 93.6249 32.6396L72.3159 21.4296L74.2327 18.4078ZM59.5526 18.4078L90.3502 34.6112L72.3797 62.9712H69.852L84.0308 40.5895C84.2658 40.223 84.3284 39.7851 84.2083 39.3757C84.0882 38.9664 83.7905 38.6189 83.3884 38.4047C82.6624 38.0239 82.1402 37.4051 81.926 36.6672C81.7066 35.9294 81.8215 35.1535 82.2445 34.4918C82.4796 34.1253 82.5422 33.6874 82.4221 33.278C82.302 32.8686 82.0095 32.5164 81.6022 32.3069L66.1278 24.1672C65.7257 23.953 65.2452 23.8959 64.7961 24.0054C64.3469 24.1148 63.9657 24.3862 63.7306 24.7527C63.3128 25.4143 62.6339 25.8903 61.8244 26.0856C61.0096 26.2855 60.1635 26.1808 59.4376 25.8C59.0354 25.5858 58.5549 25.5286 58.1058 25.6381C57.6566 25.7476 57.2702 26.0142 57.0404 26.3855L36.6873 58.5206C36.2016 59.287 36.4889 60.2628 37.3297 60.7055C38.2489 61.191 38.813 62.0526 38.8913 62.9713H31.3343L43.3463 44.0115C43.3986 43.9448 43.4403 43.8734 43.4821 43.7973L59.5621 18.4118L59.5526 18.4078ZM55.2178 57.6643C54.3769 57.2216 53.3063 57.4834 52.8205 58.2498L49.8227 62.9765H42.3909C42.3283 61.4675 41.6441 60.011 40.4742 58.9257L59.3071 29.19C60.4143 29.4565 61.5841 29.4565 62.7279 29.1804C63.8665 28.9043 64.8745 28.3712 65.6891 27.6334L78.5264 34.3833C78.2339 35.3924 78.2287 36.4586 78.5368 37.4964C78.8397 38.5341 79.4246 39.4528 80.2341 40.1953L65.804 62.9717H53.8859L55.8653 59.8491C56.351 59.0828 56.0638 58.1069 55.2229 57.6642L55.2178 57.6643ZM28.2801 44.7022H38.8402L27.293 62.9285C22.3053 62.4763 18.3362 58.6397 18.2526 53.9844V53.8416C18.2526 48.8007 22.7493 44.7022 28.2801 44.7022ZM115.378 128.408H24.729C21.1567 128.408 18.2529 125.761 18.2529 122.505V62.0904C20.7389 64.5895 24.3164 66.1698 28.2699 66.1746H28.2803H28.2856H40.4021H40.4073H40.4125H50.8317H50.8369H50.8421H88.0693H88.0746H88.0798H109.957C109.973 66.1746 109.988 66.1698 110.004 66.1698C110.02 66.1698 110.035 66.1746 110.051 66.1746H115.378C118.945 66.1746 121.844 68.8212 121.844 72.0771V84.2727H91.2439C83.034 84.2727 76.3538 90.3608 76.3538 97.844C76.3538 105.327 83.0336 111.415 91.2439 111.415H121.844V122.516C121.844 125.772 118.94 128.418 115.378 128.418L115.378 128.408ZM83.6823 97.8335C83.6823 102.094 87.4845 105.559 92.1534 105.559C96.8223 105.559 100.63 102.094 100.63 97.8335C100.63 93.5733 96.8275 90.108 92.1534 90.108C87.4793 90.108 83.6823 93.5733 83.6823 97.8335ZM92.1534 93.3067C94.8953 93.3067 97.12 95.3393 97.12 97.8335C97.12 100.328 94.8951 102.36 92.1534 102.36C89.4116 102.36 87.1919 100.332 87.1919 97.8335C87.1919 95.3344 89.4168 93.3067 92.1534 93.3067ZM60.337 57.0638C61.0525 57.0638 61.7732 56.9781 62.4835 56.802C64.6091 56.2831 66.3849 55.0407 67.4816 53.3033C68.5836 51.5658 68.8761 49.5476 68.3068 47.6102C67.7375 45.6729 66.3796 44.0592 64.4734 43.0548C62.5671 42.0505 60.3475 41.7838 58.2218 42.3075C56.0963 42.8263 54.3257 44.0687 53.2238 45.8061C52.1218 47.5436 51.8293 49.5618 52.3986 51.4992C52.9679 53.4365 54.3257 55.0503 56.232 56.0546C57.5011 56.721 58.906 57.0638 60.3318 57.0638H60.337ZM56.2633 47.4055V47.4008C56.89 46.4059 57.9085 45.692 59.1305 45.3968C59.5378 45.2969 59.9504 45.2493 60.363 45.2493C61.183 45.2493 61.9872 45.4444 62.7132 45.83C63.8047 46.406 64.5881 47.3342 64.9119 48.4432C65.2357 49.5523 65.0686 50.7138 64.4366 51.7087C63.8099 52.7035 62.7914 53.4175 61.5694 53.7126C60.3526 54.0077 59.0782 53.8554 57.9867 53.2842C56.8952 52.7082 56.1118 51.78 55.788 50.671C55.4642 49.5619 55.6314 48.4004 56.2633 47.4055ZM64.8441 39.2658L68.5521 33.4109C69.0378 32.6445 70.1085 32.3827 70.9494 32.8254C71.7902 33.2681 72.0774 34.244 71.5917 35.0103L67.8837 40.8652C67.5599 41.3793 66.9698 41.6649 66.364 41.6649C66.0663 41.6649 65.7634 41.5935 65.4866 41.4507C64.6457 41.008 64.3584 40.0322 64.8441 39.2658Z" fill="black"/>
</svg>
