<svg width="138" height="117" viewBox="0 0 138 117" fill="none" xmlns="http://www.w3.org/2000/svg">
<path fill-rule="evenodd" clip-rule="evenodd" d="M73.4014 49.4254C71.2991 47.3243 68.0108 47.0011 65.5409 48.6467C63.071 50.2972 62.1154 53.4561 63.2475 56.1987C64.3844 58.9413 67.3003 60.4988 70.2112 59.9209C73.1222 59.343 75.2196 56.7865 75.2196 53.8185C75.2245 52.173 74.5677 50.5862 73.4014 49.4254ZM85.6283 71.1121C83.6975 66.5035 79.9437 62.8989 75.2539 61.1603C71.652 64.231 66.3495 64.231 62.7476 61.1603C58.0577 62.8989 54.3038 66.5035 52.3731 71.1121C52.6867 71.4697 53.0102 71.8174 53.3483 72.1553C57.4991 76.3036 63.1299 78.6348 69.0013 78.6348C74.8727 78.6348 80.503 76.3036 84.6542 72.1553C84.9875 71.8223 85.3147 71.4745 85.6283 71.1121ZM69.0005 44.1859C65.6093 44.1859 62.4681 45.9686 60.7283 48.8729C58.9837 51.782 58.9004 55.3915 60.5028 58.379C56.0433 60.3136 52.363 63.6978 50.0744 67.9881C47.3448 63.4971 46.3108 58.1783 47.1488 52.9866C47.9868 47.8001 50.643 43.0789 54.6467 39.6703C58.6554 36.2615 63.7422 34.3907 69 34.3907C74.2578 34.3907 79.3451 36.2616 83.3532 39.6703C87.357 43.079 90.0131 47.8003 90.8512 52.9866C91.6892 58.178 90.6551 63.4968 87.9256 67.9881C85.637 63.6978 81.9616 60.3136 77.4972 58.379C79.0996 55.3915 79.0163 51.782 77.2766 48.8729C75.5321 45.9637 72.3918 44.1859 69.0005 44.1859ZM73.014 99.8223C71.098 97.9074 68.0938 97.6086 65.8395 99.1121C63.5901 100.616 62.713 103.505 63.7469 106.008C64.7859 108.511 67.4468 109.931 70.103 109.402C72.764 108.873 74.6752 106.542 74.6752 103.833C74.6801 102.33 74.0823 100.885 73.014 99.8223ZM120.368 52.4972C118.452 50.5823 115.453 50.2884 113.199 51.7919C110.944 53.2954 110.072 56.1801 111.106 58.6828C112.145 61.1855 114.806 62.6057 117.462 62.0768C120.123 61.5478 122.034 59.2167 122.034 56.5083C122.034 55.0047 121.436 53.5599 120.368 52.4972ZM25.6599 52.4972C23.7439 50.5823 20.7446 50.2884 18.4905 51.7919C16.2363 53.2954 15.359 56.1801 16.3979 58.6828C17.4368 61.1855 20.0978 62.6057 22.7539 62.0768C25.41 61.5478 27.3261 59.2167 27.3261 56.5083C27.3261 55.0047 26.7282 53.5599 25.6599 52.4972ZM73.014 5.17206C71.098 3.25228 68.0938 2.95839 65.8395 4.46191C63.5901 5.96544 62.713 8.85013 63.7469 11.3528C64.7859 13.8555 67.4468 15.2806 70.103 14.7517C72.764 14.2227 74.6752 11.8915 74.6752 9.18314C74.6801 7.67472 74.0823 6.23477 73.014 5.17206ZM32.8686 20.3992C34.7846 18.4843 35.0787 15.4869 33.5742 13.2341C32.0698 10.9813 29.1833 10.1046 26.6791 11.1428C24.1749 12.1811 22.7538 14.8404 23.2831 17.4949C23.8124 20.1494 26.145 22.0643 28.855 22.0643C30.3595 22.0643 31.8052 21.4668 32.8686 20.3992ZM105.142 20.3992C107.058 22.3141 110.062 22.6129 112.316 21.1094C114.57 19.6009 115.448 16.7162 114.409 14.2136C113.37 11.7109 110.709 10.2857 108.053 10.8147C105.392 11.3436 103.476 13.6798 103.481 16.3881C103.476 17.8917 104.078 19.3365 105.142 20.3992ZM105.142 92.633C103.226 94.5479 102.927 97.5502 104.431 99.8031C105.94 102.056 108.827 102.933 111.331 101.894C113.835 100.856 115.261 98.1967 114.732 95.5422C114.203 92.8829 111.87 90.968 109.155 90.968C107.651 90.968 106.205 91.5653 105.142 92.633ZM32.8686 92.633C30.9525 90.7181 27.9484 90.4193 25.6991 91.9277C23.4448 93.4313 22.5676 96.3159 23.6065 98.8186C24.6454 101.321 27.3064 102.742 29.9625 102.213C32.6187 101.684 34.5347 99.3525 34.5298 96.6441C34.5347 95.1356 33.9369 93.6957 32.8686 92.633ZM70.7107 31.0212C76.3022 31.3885 81.6095 33.5876 85.8242 37.2803L101.619 21.4852C98.9873 17.6063 99.7371 12.3611 103.354 9.37347C106.97 6.38597 112.268 6.63572 115.586 9.95139C118.903 13.267 119.153 18.5613 116.164 22.1757C113.174 25.7901 107.926 26.5395 104.045 23.9094L88.2449 39.7096H88.24C91.935 43.9166 94.1353 49.2255 94.5029 54.8088H107.416C108.298 50.2051 112.542 47.0266 117.207 47.4673C121.878 47.913 125.445 51.8311 125.445 56.5181C125.445 61.2051 121.877 65.128 117.207 65.5689C112.542 66.0096 108.298 62.8311 107.416 58.2274H94.5029C94.1354 63.8154 91.935 69.1195 88.24 73.3316L104.045 89.1067C107.926 86.4766 113.174 87.226 116.164 90.8404C119.153 94.4548 118.903 99.7491 115.586 103.065C112.268 106.38 106.97 106.63 103.354 103.643C99.7372 100.655 98.9874 95.4098 101.619 91.5309L85.8092 75.7408V75.7359C81.5996 79.4287 76.2875 81.6276 70.7008 81.995V94.9001C75.3073 95.7817 78.4877 100.023 78.0467 104.686C77.6008 109.353 73.6803 112.918 68.9904 112.918C64.2957 112.918 60.3752 109.353 59.9341 104.686C59.4882 100.023 62.6687 95.7817 67.2801 94.9001V81.995C61.6886 81.6277 56.3764 79.4287 52.1666 75.7359L36.3819 91.531C39.0136 95.4099 38.2637 100.655 34.6471 103.643C31.0305 106.63 25.733 106.38 22.4153 103.065C19.0977 99.7492 18.8476 94.4549 21.837 90.8405C24.8264 87.2261 30.0749 86.4767 33.9562 89.1068L49.7559 73.3067H49.7608C46.0658 69.0996 43.8655 63.7907 43.4979 58.2074H30.5849C29.7028 62.8112 25.4589 65.9896 20.7935 65.5489C16.1232 65.1032 12.5557 61.1851 12.5557 56.4981C12.5557 51.8062 16.1233 47.8882 20.7935 47.4474C25.4589 47.0017 29.7028 50.1802 30.5849 54.7889H43.4979C43.8654 49.2008 46.0658 43.8918 49.7608 39.6846L33.9561 23.9096C30.0748 26.5396 24.8264 25.7902 21.8369 22.1758C18.8476 18.5615 19.0975 13.2671 22.4152 9.95151C25.7328 6.63589 31.0304 6.38601 34.647 9.37359C38.2636 12.3611 39.0135 17.6064 36.3818 21.4853L52.1916 37.2754V37.2803C56.4012 33.5876 61.7133 31.3886 67.3001 31.0212V18.1161C62.6935 17.2345 59.5131 12.9933 59.9541 8.33071C60.4 3.66327 64.3205 0.0979004 69.0104 0.0979004C73.7052 0.0979004 77.6256 3.66339 78.0667 8.33071C78.5127 12.9933 75.3322 17.2345 70.7207 18.1161L70.7107 31.0212Z" fill="black"/>
</svg>
