<svg xmlns="http://www.w3.org/2000/svg" width="165" height="77" viewBox="0 0 165 77" fill="none">
                                        <path d="M51.2874 0.5C41.0182 0.5 32.6606 8.85934 32.6606 19.1306C32.6606 29.4018 41.0182 37.7612 51.2874 37.7612C61.5565 37.7612 69.9141 29.4158 69.9141 19.1306C69.9141 8.84539 61.5704 0.5 51.2874 0.5ZM51.2874 36.7843C41.5484 36.7843 33.6373 28.8715 33.6373 19.1306C33.6373 9.38965 41.5624 1.47689 51.2874 1.47689C61.0123 1.47689 68.9374 9.40361 68.9374 19.1306C68.9374 28.8576 61.0263 36.7843 51.2874 36.7843Z" fill="#333F50"></path>
                                        <path d="M53.701 19.3401L27.3306 76.0552L0.806763 19.2563H9.6527L29.6049 62.1834H30.9862L50.8547 19.3401H53.701Z" fill="#8F1313"></path>
                                        <path d="M73.1506 60.48V65.52H53.6026V60.48H73.1506ZM58.2106 63L56.4106 74.16L53.5666 70.92H74.3026V76.5H49.6066L51.6946 63L49.6066 49.5H74.1226V55.08H53.5666L56.4106 51.84L58.2106 63Z" fill="#8F1313"></path>
                                        <path d="M103.791 71.856L101.595 72.252V49.5H108.183V76.5H99.6145L83.1625 53.748L85.3585 53.352V76.5H78.7705V49.5H87.5905L103.791 71.856Z" fill="#8F1313"></path>
                                        <path d="M113.435 49.5H120.239V76.5H113.435V49.5Z" fill="#8F1313"></path>
                                        <path d="M164.193 49.5V76.5H157.713V51.876L159.297 51.984L148.317 76.5H141.369L130.389 52.056L131.973 51.912V76.5H125.493V49.5H135.969L146.229 73.116H143.493L153.717 49.5H164.193Z" fill="#8F1313"></path>
                                    </svg>