<svg xmlns="http://www.w3.org/2000/svg" width="36" height="22" viewBox="0 0 36 22" fill="none">
                        <path d="M0.64069 21.0647C0.400291 21.2006 0.315559 21.5056 0.451437 21.746C0.587315 21.9864 0.892348 22.0712 1.13275 21.9353L0.64069 21.0647ZM35.8685 2.13382C35.9424 1.86775 35.7866 1.59215 35.5205 1.51824L31.1847 0.313844C30.9186 0.239936 30.643 0.395713 30.5691 0.661781C30.4952 0.927849 30.651 1.20345 30.9171 1.27736L34.7711 2.34794L33.7006 6.20201C33.6267 6.46808 33.7824 6.74368 34.0485 6.81759C34.3146 6.8915 34.5902 6.73572 34.6641 6.46965L35.8685 2.13382ZM1.13275 21.9353L35.6327 2.43528L35.1407 1.56472L0.64069 21.0647L1.13275 21.9353Z" fill="#8F1313"></path>
                    </svg>