<svg xmlns="http://www.w3.org/2000/svg" width="85" height="85" viewBox="0 0 85 85" fill="none" class="practslide-svg">
                                <circle cx="42.5" cy="42.5" r="42.5" fill="#8F1313"></circle>
                                <path d="M22 42C21.4477 42 21 42.4477 21 43C21 43.5523 21.4477 44 22 44V42ZM63.2071 43.7071C63.5976 43.3166 63.5976 42.6834 63.2071 42.2929L56.8431 35.9289C56.4526 35.5384 55.8195 35.5384 55.4289 35.9289C55.0384 36.3195 55.0384 36.9526 55.4289 37.3431L61.0858 43L55.4289 48.6569C55.0384 49.0474 55.0384 49.6805 55.4289 50.0711C55.8195 50.4616 56.4526 50.4616 56.8431 50.0711L63.2071 43.7071ZM22 44H62.5V42H22V44Z" fill="white"></path>
                            </svg>