<svg xmlns="http://www.w3.org/2000/svg" width="60" height="60" viewBox="0 0 60 60" fill="none" class="chat-btn">
                <circle cx="30" cy="30" r="30" fill="#8F1313"></circle>
                <path fill-rule="evenodd" clip-rule="evenodd" d="M21.9 15.2979C27.5175 14.8746 33.1599 14.9025 38.7729 15.3812L42.1562 15.6687C43.3975 15.7749 44.5669 16.2952 45.4768 17.1461C46.3866 17.997 46.984 19.1291 47.1729 20.3604L47.3854 21.7542C48.1097 26.4789 48.0421 31.2912 47.1854 35.9937C46.9806 37.118 46.3877 38.1348 45.5102 38.8669C44.6327 39.599 43.5261 40 42.3833 40H23.6833C23.2521 40 22.8292 40.1062 22.45 40.3104L14.3021 44.6896C14.064 44.8175 13.7968 44.8815 13.5266 44.8753C13.2563 44.8691 12.9923 44.7928 12.7604 44.6541C12.5284 44.5153 12.3364 44.3188 12.2032 44.0836C12.0699 43.8485 11.9999 43.5828 12 43.3125V25.5687C12.0005 22.9789 12.9794 20.4849 14.7407 18.5861C16.5019 16.6874 18.9154 15.524 21.4979 15.3292L21.9 15.2979ZM21.8958 25.6042C21.2052 25.6042 20.5428 25.8785 20.0544 26.3669C19.566 26.8553 19.2917 27.5177 19.2917 28.2083C19.2917 28.899 19.566 29.5614 20.0544 30.0497C20.5428 30.5381 21.2052 30.8125 21.8958 30.8125C22.5865 30.8125 23.2489 30.5381 23.7373 30.0497C24.2256 29.5614 24.5 28.899 24.5 28.2083C24.5 27.5177 24.2256 26.8553 23.7373 26.3669C23.2489 25.8785 22.5865 25.6042 21.8958 25.6042ZM30.2292 25.6042C29.5385 25.6042 28.8761 25.8785 28.3877 26.3669C27.8994 26.8553 27.625 27.5177 27.625 28.2083C27.625 28.899 27.8994 29.5614 28.3877 30.0497C28.8761 30.5381 29.5385 30.8125 30.2292 30.8125C30.9198 30.8125 31.5822 30.5381 32.0706 30.0497C32.559 29.5614 32.8333 28.899 32.8333 28.2083C32.8333 27.5177 32.559 26.8553 32.0706 26.3669C31.5822 25.8785 30.9198 25.6042 30.2292 25.6042ZM35.9583 28.2083C35.9583 27.5177 36.2327 26.8553 36.7211 26.3669C37.2095 25.8785 37.8718 25.6042 38.5625 25.6042C39.2532 25.6042 39.9155 25.8785 40.4039 26.3669C40.8923 26.8553 41.1667 27.5177 41.1667 28.2083C41.1667 28.899 40.8923 29.5614 40.4039 30.0497C39.9155 30.5381 39.2532 30.8125 38.5625 30.8125C37.8718 30.8125 37.2095 30.5381 36.7211 30.0497C36.2327 29.5614 35.9583 28.899 35.9583 28.2083Z" fill="white"></path>
            </svg>