<svg xmlns="http://www.w3.org/2000/svg" width="164" height="76" viewBox="0 0 164 76" fill="none">
                    <path d="M50.4807 0C40.2116 0 31.854 8.35934 31.854 18.6306C31.854 28.9018 40.2116 37.2612 50.4807 37.2612C60.7498 37.2612 69.1074 28.9158 69.1074 18.6306C69.1074 8.34539 60.7638 0 50.4807 0ZM50.4807 36.2843C40.7418 36.2843 32.8307 28.3715 32.8307 18.6306C32.8307 8.88965 40.7558 0.976891 50.4807 0.976891C60.2057 0.976891 68.1307 8.90361 68.1307 18.6306C68.1307 28.3576 60.2196 36.2843 50.4807 36.2843Z" fill="#333F50"></path>
                    <path d="M52.8943 18.84L26.5238 75.555L0 18.7562H8.84594L28.7981 61.6833H30.1794L50.0479 18.84H52.8943Z" fill="#8F1313"></path>
                    <path d="M72.3438 59.98V65.02H52.7958V59.98H72.3438ZM57.4038 62.5L55.6038 73.66L52.7598 70.42H73.4958V76H48.7998L50.8878 62.5L48.7998 49H73.3158V54.58H52.7598L55.6038 51.34L57.4038 62.5Z" fill="#8F1313"></path>
                    <path d="M102.984 71.356L100.788 71.752V49H107.376V76H98.8077L82.3557 53.248L84.5517 52.852V76H77.9637V49H86.7837L102.984 71.356Z" fill="#8F1313"></path>
                    <path d="M112.628 49H119.432V76H112.628V49Z" fill="#8F1313"></path>
                    <path d="M163.386 49V76H156.906V51.376L158.49 51.484L147.51 76H140.562L129.582 51.556L131.166 51.412V76H124.686V49H135.162L145.422 72.616H142.686L152.91 49H163.386Z" fill="#8F1313"></path>
                </svg>