<svg xmlns="http://www.w3.org/2000/svg" width="323" height="150" viewBox="0 0 323 150" fill="none">
                    <path d="M99.8961 0C79.6281 0 63.1328 16.4987 63.1328 36.7709C63.1328 57.0431 79.6281 73.5418 99.8961 73.5418C120.164 73.5418 136.659 57.0706 136.659 36.7709C136.659 16.4712 120.192 0 99.8961 0ZM99.8961 71.6137C80.6745 71.6137 65.0605 55.9964 65.0605 36.7709C65.0605 17.5454 80.7021 1.92807 99.8961 1.92807C119.09 1.92807 134.732 17.5729 134.732 36.7709C134.732 55.9689 119.118 71.6137 99.8961 71.6137Z" fill="#333F50"></path>
                    <path d="M104.66 37.1842L52.613 149.122L0.263306 37.0189H17.7224L57.1017 121.743H59.828L99.0421 37.1842H104.66Z" fill="#8F1313"></path>
                    <path d="M143.047 118.382V128.329H104.466V118.382H143.047ZM113.56 123.355L110.008 145.382L104.395 138.987H145.321V150H96.5787L100.7 123.355L96.5787 96.7106H144.966V107.724H104.395L110.008 101.329L113.56 123.355Z" fill="#8F1313"></path>
                    <path d="M203.521 140.834L199.187 141.616V96.7106H212.189V150H195.279L162.808 105.095L167.142 104.313V150H154.139V96.7106H171.547L203.521 140.834Z" fill="#8F1313"></path>
                    <path d="M222.555 96.7106H235.984V150H222.555V96.7106Z" fill="#8F1313"></path>
                    <path d="M322.736 96.7106V150H309.947V101.4L313.073 101.613L291.402 150H277.689L256.018 101.755L259.144 101.471V150H246.355V96.7106H267.031L287.281 143.321H281.881L302.06 96.7106H322.736Z" fill="#8F1313"></path>
                </svg>